<?xml version="1.0" encoding="utf-8"?>
<!-- Generator: Adobe Illustrator 21.0.0, SVG Export Plug-In . SVG Version: 6.00 Build 0)  -->
<svg version="1.0" id="Layer_1" xmlns="http://www.w3.org/2000/svg" xmlns:xlink="http://www.w3.org/1999/xlink" x="0px" y="0px"
	 width="765px" height="359px" viewBox="0 0 765 359" enable-background="new 0 0 765 359" xml:space="preserve">
<g>
	<path fill="#20744B" d="M522.6,52H411.7V25.9L229.3,54v246.7l182.3,31.4v-38.7h110.9c7.4,0,13.4-5.4,13.4-12V64
		C535.9,57.4,530,52,522.6,52z M524.3,283.3h-113l-0.2-20.7h27.2v-24.1h-27.4l-0.1-14.2h27.6v-24.1h-27.8l-0.1-14.2h27.9v-24.1h-28
		v-14.2h28v-24.1h-28v-14.2h28V85.2h-28V63.3h114V283.3L524.3,283.3z"/>
	<rect x="453.7" y="85.2" fill="#20744B" width="47.3" height="24.1"/>
	<rect x="453.7" y="123.6" fill="#20744B" width="47.3" height="24.1"/>
	<rect x="453.7" y="161.9" fill="#20744B" width="47.3" height="24.1"/>
	<rect x="453.7" y="200.2" fill="#20744B" width="47.3" height="24.1"/>
	<rect x="453.7" y="238.6" fill="#20744B" width="47.3" height="24.1"/>
</g>
<polygon fill="#FFFFFF" points="276.9,120.6 300.4,119.3 315.2,159.9 332.7,117.6 356.2,116.3 327.6,173.9 356.2,231.7 331.3,230.1 
	314.5,186 297.7,228.4 274.9,226.4 301.4,175.3 "/>
</svg>
