<svg id="Группа_2_копия_4" data-name="Группа 2 копия 4" xmlns="http://www.w3.org/2000/svg" width="360" height="301" viewBox="0 0 360 301">
  <metadata><?xpacket begin="﻿" id="W5M0MpCehiHzreSzNTczkc9d"?>
<x:xmpmeta xmlns:x="adobe:ns:meta/" x:xmptk="Adobe XMP Core 5.6-c138 79.159824, 2016/09/14-01:09:01        ">
   <rdf:RDF xmlns:rdf="http://www.w3.org/1999/02/22-rdf-syntax-ns#">
      <rdf:Description rdf:about=""/>
   </rdf:RDF>
</x:xmpmeta>
                                                                                                    
                                                                                                    
                                                                                                    
                                                                                                    
                                                                                                    
                                                                                                    
                                                                                                    
                                                                                                    
                                                                                                    
                                                                                                    
                                                                                                    
                                                                                                    
                                                                                                    
                                                                                                    
                                                                                                    
                                                                                                    
                                                                                                    
                                                                                                    
                                                                                                    
                                                                                                    
                           
<?xpacket end="w"?></metadata>
<defs>
    <style>
      .cls-1, .cls-3 {
        fill: #fff;
      }

      .cls-1, .cls-2 {
        fill-rule: evenodd;
      }

      .cls-2 {
        fill: #ee3840;
      }
    </style>
  </defs>
  <path id="м4м" class="cls-1" d="M21.638,229.412h1.185l27.263,65.431H64.977l27.189-65.431h1.185V301h20.743V193.951h-26.3l-29.633,71.96H56.828l-29.559-71.96H0.894V301H21.638V229.412ZM209.884,301V282.305h14v-18.62h-14V193.951H178.547q-29.782,44.883-42.3,68.547v19.807h52.3V301h21.336Zm-22-89.615h1.186v52.968H156.322v-1.187q14.447-26.187,31.559-51.781h0Zm78.825,18.027h1.186l27.262,65.431h14.891l27.189-65.431h1.185V301h20.743V193.951h-26.3l-29.634,71.96H301.9l-29.559-71.96H245.963V301h20.743V229.412Z"/>
  <path class="cls-2" d="M214.148,145.112a16.3,16.3,0,1,1-23.061-.026A16.345,16.345,0,0,1,214.148,145.112Z"/>
  <path id="Shape_1_копия_4" data-name="Shape 1 копия 4" class="cls-1" d="M290.736,165.412a12.191,12.191,0,0,1-3.571-8.672,84.963,84.963,0,0,0-84.63-84.746,12.233,12.233,0,0,1-.027-24.466c60.1,0.068,109.023,49.055,109.09,109.24A12.224,12.224,0,0,1,290.736,165.412Zm-46.743-.085a12.191,12.191,0,0,1-3.57-8.672,37.936,37.936,0,0,0-37.8-37.854,12.233,12.233,0,0,1-.027-24.466,62.385,62.385,0,0,1,62.23,62.38A12.178,12.178,0,0,1,243.993,165.327Zm94.237,0.139a12.193,12.193,0,0,1-3.571-8.672C334.545,83.885,275.291,24.55,202.515,24.468A12.233,12.233,0,0,1,202.487,0,157,157,0,0,1,359.125,156.854a12.215,12.215,0,0,1-12.2,12.219A12.419,12.419,0,0,1,338.23,165.466Z"/>
  <rect id="Прямоугольник_1" data-name="Прямоугольник 1" class="cls-3" x="143.781" y="0.031" width="27.563" height="165.469" rx="13.775" ry="13.775"/>
  <rect id="Прямоугольник_1_копия" data-name="Прямоугольник 1 копия" class="cls-3" x="96.219" y="35.125" width="27.531" height="130.375" rx="13.766" ry="13.766"/>
  <rect id="Прямоугольник_1_копия_2" data-name="Прямоугольник 1 копия 2" class="cls-3" x="48.656" y="75.219" width="27.531" height="90.281" rx="13.766" ry="13.766"/>
  <rect id="Прямоугольник_1_копия_3" data-name="Прямоугольник 1 копия 3" class="cls-3" x="1.063" y="115.375" width="27.531" height="50.125" rx="13.766" ry="13.766"/>
</svg>
