<?xml version="1.0" encoding="utf-8"?>
<!-- Generator: Adobe Illustrator 20.1.0, SVG Export Plug-In . SVG Version: 6.00 Build 0)  -->
<svg version="1.1" id="logo" xmlns="http://www.w3.org/2000/svg" xmlns:xlink="http://www.w3.org/1999/xlink" x="0px" y="0px"
	 viewBox="0 0 488.2 144.2" style="enable-background:new 0 0 488.2 144.2;" xml:space="preserve">
<g>
	<g>
		<path style="fill:#151719;" d="M34.5,144.1c-2.1,0-3.9-0.3-5.5-1c-1.6-0.7-2.9-1.6-4-2.8c-1.1-1.2-1.9-2.6-2.4-4.3
			c-0.5-1.7-0.8-3.5-0.8-5.5s0.3-3.8,0.9-5.5c0.6-1.7,1.4-3.1,2.5-4.3c1.1-1.2,2.4-2.2,3.9-2.8c1.5-0.7,3.3-1,5.2-1
			c1.2,0,2.3,0.1,3.5,0.3c1.2,0.2,2.3,0.5,3.4,0.9l-1.1,3.9c-0.7-0.3-1.5-0.6-2.4-0.8c-0.9-0.2-1.9-0.3-2.9-0.3
			c-2.6,0-4.6,0.8-6,2.5c-1.4,1.6-2.1,4-2.1,7.1c0,1.4,0.2,2.7,0.5,3.9c0.3,1.2,0.8,2.2,1.5,3c0.7,0.8,1.6,1.5,2.6,1.9
			c1.1,0.5,2.4,0.7,3.9,0.7c1.2,0,2.4-0.1,3.4-0.3c1-0.2,1.8-0.5,2.4-0.8l0.6,3.9c-0.3,0.2-0.6,0.3-1.1,0.5
			c-0.5,0.1-1.1,0.3-1.7,0.4c-0.6,0.1-1.3,0.2-2,0.3C35.8,144.1,35.1,144.1,34.5,144.1z"/>
		<path style="fill:#151719;" d="M61,117c0.4,0,0.9,0,1.4,0.1c0.5,0,1,0.1,1.5,0.2c0.5,0.1,1,0.2,1.4,0.3c0.4,0.1,0.7,0.2,0.9,0.2
			l-0.8,4.1c-0.4-0.1-1-0.3-1.8-0.5c-0.8-0.2-1.9-0.3-3.3-0.3c-0.9,0-1.7,0.1-2.6,0.3c-0.9,0.2-1.4,0.3-1.7,0.4v21.8h-4.6v-24.9
			c1.1-0.4,2.5-0.8,4.1-1.1C57.1,117.1,59,117,61,117z"/>
		<path style="fill:#151719;" d="M74.3,130.6c0-2.3,0.3-4.3,1-6c0.7-1.7,1.6-3.1,2.7-4.3c1.1-1.1,2.4-2,3.8-2.6
			c1.4-0.6,2.9-0.8,4.4-0.8c3.5,0,6.2,1.1,8.1,3.3c1.9,2.2,2.8,5.5,2.8,10c0,0.2,0,0.5,0,0.8s0,0.6,0,0.9H79.1
			c0.2,2.7,1,4.8,2.4,6.2c1.4,1.4,3.5,2.1,6.4,2.1c1.6,0,3-0.1,4.1-0.4c1.1-0.3,2-0.6,2.5-0.8l0.7,3.9c-0.6,0.3-1.6,0.6-3,0.9
			c-1.4,0.3-3,0.5-4.8,0.5c-2.3,0-4.2-0.3-5.9-1c-1.6-0.7-3-1.6-4.1-2.8c-1.1-1.2-1.9-2.6-2.4-4.3C74.5,134.3,74.3,132.5,74.3,130.6
			z M92.1,128c0-2.1-0.5-3.8-1.6-5.2c-1.1-1.3-2.6-2-4.5-2c-1.1,0-2,0.2-2.8,0.6c-0.8,0.4-1.5,1-2.1,1.6c-0.6,0.7-1,1.4-1.3,2.3
			c-0.3,0.9-0.5,1.8-0.6,2.7H92.1z"/>
		<path style="fill:#151719;" d="M117.1,116.9c1.9,0,3.4,0.2,4.7,0.7c1.3,0.5,2.3,1.2,3.1,2.1c0.8,0.9,1.3,1.9,1.7,3.2
			c0.3,1.2,0.5,2.6,0.5,4v16.3c-0.4,0.1-1,0.2-1.7,0.3c-0.7,0.1-1.5,0.2-2.4,0.3c-0.9,0.1-1.9,0.2-2.9,0.3c-1,0.1-2.1,0.1-3.1,0.1
			c-1.5,0-2.8-0.1-4-0.4c-1.2-0.3-2.3-0.8-3.2-1.4c-0.9-0.6-1.6-1.5-2.1-2.6s-0.8-2.3-0.8-3.8c0-1.4,0.3-2.7,0.9-3.7
			c0.6-1,1.4-1.9,2.4-2.5c1-0.6,2.2-1.1,3.5-1.4c1.3-0.3,2.7-0.5,4.2-0.5c0.5,0,0.9,0,1.4,0.1c0.5,0,1,0.1,1.4,0.2
			c0.4,0.1,0.8,0.2,1.2,0.2c0.3,0.1,0.6,0.1,0.7,0.2v-1.3c0-0.8-0.1-1.5-0.3-2.3c-0.2-0.8-0.5-1.4-0.9-2c-0.4-0.6-1-1.1-1.8-1.4
			s-1.7-0.5-2.9-0.5c-1.5,0-2.9,0.1-4,0.3c-1.1,0.2-2,0.4-2.6,0.7l-0.5-3.8c0.6-0.3,1.6-0.5,3-0.8S115.4,116.9,117.1,116.9z
			 M117.5,140.2c1.1,0,2.1,0,2.9-0.1c0.9,0,1.6-0.1,2.1-0.3v-7.8c-0.3-0.2-0.9-0.3-1.6-0.4s-1.7-0.2-2.7-0.2c-0.7,0-1.4,0.1-2.2,0.2
			c-0.8,0.1-1.5,0.3-2.1,0.6s-1.2,0.8-1.6,1.3c-0.4,0.5-0.6,1.3-0.6,2.2c0,1.7,0.5,2.8,1.6,3.5C114.2,139.8,115.6,140.2,117.5,140.2
			z"/>
		<path style="fill:#151719;" d="M144.1,117.5h9.8v3.9h-9.8v12c0,1.3,0.1,2.4,0.3,3.2s0.5,1.5,0.9,2c0.4,0.5,0.9,0.8,1.5,1
			c0.6,0.2,1.3,0.3,2.1,0.3c1.4,0,2.5-0.2,3.4-0.5c0.8-0.3,1.4-0.5,1.8-0.7l0.9,3.9c-0.5,0.2-1.3,0.5-2.5,0.9
			c-1.2,0.3-2.5,0.5-4,0.5c-1.8,0-3.2-0.2-4.4-0.7c-1.1-0.5-2.1-1.1-2.8-2c-0.7-0.9-1.2-2-1.5-3.3s-0.4-2.8-0.4-4.6v-23.2l4.7-0.8
			V117.5z"/>
		<path style="fill:#151719;" d="M167.2,112.8c-0.8,0-1.5-0.3-2.1-0.8s-0.9-1.3-0.9-2.2s0.3-1.7,0.9-2.2c0.6-0.6,1.3-0.8,2.1-0.8
			s1.5,0.3,2.1,0.8c0.6,0.5,0.9,1.3,0.9,2.2s-0.3,1.7-0.9,2.2S168,112.8,167.2,112.8z M169.5,143.5h-4.7v-26h4.7V143.5z"/>
		<path style="fill:#151719;" d="M202.8,117.5c-1.3,4.9-2.8,9.5-4.6,14s-3.4,8.5-5.1,12H189c-1.6-3.5-3.3-7.5-5.1-12
			s-3.3-9.1-4.6-14h5c0.4,1.6,0.9,3.4,1.4,5.2c0.5,1.8,1.1,3.7,1.8,5.5c0.6,1.8,1.2,3.6,1.9,5.3c0.6,1.7,1.2,3.2,1.8,4.5
			c0.6-1.3,1.2-2.8,1.8-4.5c0.6-1.7,1.3-3.5,1.9-5.3c0.6-1.8,1.2-3.7,1.8-5.5s1-3.6,1.4-5.2H202.8z"/>
		<path style="fill:#151719;" d="M210.5,130.6c0-2.3,0.3-4.3,1-6s1.6-3.1,2.7-4.3s2.4-2,3.8-2.6c1.4-0.6,2.9-0.8,4.4-0.8
			c3.5,0,6.2,1.1,8,3.3c1.9,2.2,2.8,5.5,2.8,10c0,0.2,0,0.5,0,0.8s0,0.6,0,0.9h-17.8c0.2,2.7,1,4.8,2.3,6.2c1.4,1.4,3.5,2.1,6.4,2.1
			c1.6,0,3-0.1,4.1-0.4c1.1-0.3,2-0.6,2.5-0.8l0.7,3.9c-0.6,0.3-1.6,0.6-3,0.9c-1.4,0.3-3,0.5-4.8,0.5c-2.3,0-4.2-0.3-5.9-1
			c-1.7-0.7-3-1.6-4.1-2.8c-1.1-1.2-1.9-2.6-2.4-4.3C210.7,134.3,210.5,132.5,210.5,130.6z M228.3,128c0-2.1-0.5-3.8-1.6-5.2
			c-1.1-1.3-2.6-2-4.5-2c-1.1,0-2,0.2-2.8,0.6c-0.8,0.4-1.5,1-2.1,1.6c-0.6,0.7-1,1.4-1.3,2.3c-0.3,0.9-0.5,1.8-0.6,2.7H228.3z"/>
		<path style="fill:#151719;" d="M267.5,140.2c1.9,0,3.3-0.3,4.2-0.8c0.9-0.5,1.4-1.3,1.4-2.4c0-1.1-0.5-2-1.4-2.7
			c-0.9-0.7-2.4-1.4-4.4-2.3c-1-0.4-2-0.8-2.9-1.2c-0.9-0.4-1.7-0.9-2.4-1.5c-0.7-0.6-1.2-1.3-1.6-2.1c-0.4-0.8-0.6-1.8-0.6-2.9
			c0-2.3,0.8-4.1,2.5-5.5s4-2,7-2c0.7,0,1.5,0,2.2,0.1c0.7,0.1,1.4,0.2,2,0.3c0.6,0.1,1.2,0.2,1.7,0.4c0.5,0.1,0.9,0.3,1.1,0.3
			l-0.8,4c-0.5-0.3-1.3-0.5-2.4-0.8c-1.1-0.3-2.3-0.4-3.8-0.4c-1.3,0-2.4,0.3-3.4,0.8c-1,0.5-1.5,1.3-1.5,2.4c0,0.6,0.1,1.1,0.3,1.5
			c0.2,0.4,0.5,0.8,1,1.2s1,0.7,1.7,1s1.5,0.6,2.4,0.9c1.2,0.5,2.3,0.9,3.3,1.4c1,0.5,1.8,1,2.5,1.6c0.7,0.6,1.2,1.3,1.6,2.2
			c0.4,0.9,0.6,1.9,0.6,3.1c0,2.4-0.9,4.2-2.7,5.5s-4.3,1.8-7.6,1.8c-2.3,0-4.1-0.2-5.4-0.6s-2.2-0.7-2.7-0.9l0.9-4
			c0.5,0.2,1.4,0.5,2.5,0.9C264,140,265.5,140.2,267.5,140.2z"/>
		<path style="fill:#151719;" d="M293.1,117.5h9.8v3.9h-9.8v12c0,1.3,0.1,2.4,0.3,3.2s0.5,1.5,0.9,2c0.4,0.5,0.9,0.8,1.5,1
			c0.6,0.2,1.3,0.3,2.1,0.3c1.4,0,2.5-0.2,3.4-0.5c0.8-0.3,1.4-0.5,1.8-0.7l0.9,3.9c-0.5,0.2-1.3,0.5-2.5,0.9
			c-1.2,0.3-2.5,0.5-4,0.5c-1.8,0-3.2-0.2-4.4-0.7c-1.1-0.5-2.1-1.1-2.8-2c-0.7-0.9-1.2-2-1.5-3.3s-0.4-2.8-0.4-4.6v-23.2l4.7-0.8
			V117.5z"/>
		<path style="fill:#151719;" d="M334.5,142.8c-1.1,0.3-2.5,0.5-4.2,0.8s-3.8,0.4-6.1,0.4c-2,0-3.7-0.3-5-0.9
			c-1.4-0.6-2.5-1.4-3.3-2.5c-0.8-1.1-1.4-2.3-1.8-3.8c-0.4-1.4-0.5-3.1-0.5-4.8v-14.6h4.7v13.6c0,3.2,0.5,5.4,1.5,6.8s2.7,2,5,2
			c0.5,0,1,0,1.5,0s1-0.1,1.5-0.1c0.5-0.1,0.9-0.1,1.3-0.2c0.4-0.1,0.7-0.1,0.8-0.2v-21.9h4.7V142.8z"/>
		<path style="fill:#151719;" d="M364.3,105.5l4.7-0.8v38.1c-1.1,0.3-2.4,0.6-4.1,0.9c-1.7,0.3-3.6,0.4-5.8,0.4
			c-2,0-3.8-0.3-5.4-0.9c-1.6-0.6-3-1.5-4.1-2.7c-1.1-1.2-2-2.6-2.6-4.3c-0.6-1.7-0.9-3.6-0.9-5.7c0-2,0.3-3.8,0.8-5.5
			c0.5-1.7,1.3-3.1,2.3-4.3c1-1.2,2.2-2.1,3.7-2.8c1.4-0.7,3.1-1,5-1c1.5,0,2.8,0.2,4,0.6c1.2,0.4,2,0.8,2.6,1.2V105.5z M364.3,123
			c-0.6-0.5-1.4-0.9-2.5-1.3s-2.2-0.7-3.5-0.7c-1.3,0-2.5,0.2-3.4,0.7c-1,0.5-1.7,1.2-2.3,2c-0.6,0.8-1,1.9-1.3,3s-0.4,2.4-0.4,3.8
			c0,3,0.8,5.4,2.3,7c1.5,1.6,3.5,2.5,6,2.5c1.3,0,2.3-0.1,3.2-0.2c0.8-0.1,1.5-0.2,2-0.4V123z"/>
		<path style="fill:#151719;" d="M384.3,112.8c-0.8,0-1.5-0.3-2.1-0.8s-0.9-1.3-0.9-2.2s0.3-1.7,0.9-2.2c0.6-0.6,1.3-0.8,2.1-0.8
			s1.5,0.3,2.1,0.8c0.6,0.5,0.9,1.3,0.9,2.2s-0.3,1.7-0.9,2.2S385.1,112.8,384.3,112.8z M386.6,143.5H382v-26h4.7V143.5z"/>
		<path style="fill:#151719;" d="M422.6,130.5c0,2.1-0.3,3.9-0.9,5.6c-0.6,1.7-1.4,3.1-2.5,4.3c-1.1,1.2-2.4,2.1-3.9,2.8
			c-1.5,0.7-3.1,1-4.9,1c-1.8,0-3.4-0.3-4.9-1c-1.5-0.6-2.8-1.6-3.9-2.8c-1.1-1.2-1.9-2.6-2.5-4.3c-0.6-1.7-0.9-3.5-0.9-5.6
			c0-2,0.3-3.9,0.9-5.6c0.6-1.7,1.4-3.1,2.5-4.3s2.4-2.1,3.9-2.8s3.1-1,4.9-1c1.8,0,3.4,0.3,4.9,1s2.8,1.6,3.9,2.8
			c1.1,1.2,1.9,2.6,2.5,4.3C422.3,126.6,422.6,128.5,422.6,130.5z M417.7,130.5c0-2.9-0.7-5.3-2-7c-1.3-1.7-3.1-2.6-5.4-2.6
			c-2.3,0-4.1,0.9-5.4,2.6c-1.3,1.7-2,4-2,7s0.7,5.3,2,7c1.3,1.7,3.1,2.6,5.4,2.6c2.3,0,4.1-0.9,5.4-2.6
			C417,135.8,417.7,133.4,417.7,130.5z"/>
	</g>
	<g>
		<path style="fill:#151719;" d="M63.3,100.9c-2.4-6.2-5-13.4-7.7-21.4c-2.7-8-5.2-16.4-7.5-25c-2.3,8.7-4.7,17-7.4,25
			c-2.7,8-5.2,15.1-7.7,21.4H22.5c-4-8.9-7.9-19.1-11.7-30.5C7,58.9,3.4,46.5,0,33.3h13c0.9,4.1,1.9,8.5,3.1,13.3
			c1.2,4.8,2.5,9.5,3.8,14.3c1.3,4.8,2.8,9.4,4.2,13.8c1.5,4.4,2.9,8.3,4.2,11.6c1.5-4.1,2.9-8.4,4.4-12.9c1.4-4.5,2.8-9.1,4.1-13.8
			c1.3-4.6,2.5-9.2,3.7-13.6c1.2-4.5,2.2-8.6,3.1-12.5h10c0.8,3.9,1.7,8.1,2.9,12.5c1.1,4.5,2.3,9,3.6,13.6
			c1.3,4.6,2.7,9.2,4.1,13.8c1.4,4.5,2.9,8.9,4.4,12.9c1.3-3.3,2.7-7.1,4.1-11.6c1.4-4.4,2.8-9,4.2-13.8c1.4-4.8,2.7-9.5,3.9-14.3
			c1.2-4.8,2.3-9.2,3.1-13.3h12.5c-3.4,13.3-7,25.6-10.8,37c-3.8,11.4-7.7,21.6-11.7,30.5H63.3z"/>
		<path style="fill:#151719;" d="M105.3,67.2c0-6,0.9-11.2,2.6-15.7c1.7-4.5,4-8.2,6.9-11.1c2.9-2.9,6.2-5.2,9.9-6.6
			c3.7-1.5,7.5-2.2,11.4-2.2c9.1,0,16.1,2.8,20.9,8.5c4.9,5.7,7.3,14.3,7.3,25.9c0,0.5,0,1.2,0,2c0,0.8,0,1.6-0.1,2.3h-46.3
			c0.5,7,2.6,12.3,6.1,16c3.6,3.6,9.1,5.5,16.6,5.5c4.2,0,7.8-0.4,10.7-1.1c2.9-0.7,5.1-1.5,6.6-2.1l1.7,10.1
			c-1.5,0.8-4.1,1.6-7.7,2.5s-7.9,1.3-12.5,1.3c-5.9,0-11-0.9-15.3-2.7c-4.3-1.8-7.8-4.2-10.6-7.3c-2.8-3.1-4.8-6.8-6.2-11.1
			C106,77,105.3,72.3,105.3,67.2z M151.7,60.6c0.1-5.5-1.3-9.9-4.1-13.5c-2.8-3.5-6.7-5.3-11.6-5.3c-2.8,0-5.2,0.5-7.3,1.6
			c-2.1,1.1-3.9,2.5-5.4,4.2c-1.5,1.7-2.6,3.7-3.4,6c-0.8,2.3-1.4,4.6-1.6,6.9H151.7z"/>
		<path style="fill:#151719;" d="M193.8,36.3c1.5-1,3.7-1.9,6.7-3s6.4-1.6,10.3-1.6c4.9,0,9.2,0.9,12.9,2.6c3.8,1.7,7,4.2,9.6,7.3
			c2.6,3.1,4.6,6.8,5.9,11.2c1.3,4.3,2,9.1,2,14.3c0,5.5-0.8,10.4-2.4,14.8c-1.6,4.4-3.9,8.1-6.8,11.1c-2.9,3-6.5,5.4-10.7,7
			s-8.8,2.5-14,2.5c-5.6,0-10.6-0.4-14.9-1.2c-4.3-0.8-7.9-1.6-10.7-2.3V2.1L193.8,0V36.3z M193.8,90.3c1.2,0.3,2.9,0.7,5.1,1
			c2.2,0.3,5,0.5,8.3,0.5c6.5,0,11.7-2.1,15.6-6.4s5.8-10.4,5.8-18.3c0-3.5-0.3-6.7-1-9.8c-0.7-3-1.8-5.7-3.4-7.9
			c-1.6-2.2-3.6-3.9-6-5.2c-2.5-1.3-5.4-1.9-8.9-1.9c-3.3,0-6.3,0.6-9.1,1.7c-2.8,1.1-4.9,2.3-6.4,3.5V90.3z"/>
		<path style="fill:#151719;" d="M282.7,63.7c2.6,2,5.4,4.5,8.3,7.4c2.9,2.9,5.8,6.1,8.6,9.6c2.8,3.4,5.5,6.9,8,10.4
			c2.5,3.5,4.6,6.8,6.4,9.8h-14.2c-1.8-3-3.9-6.1-6.3-9.3c-2.4-3.2-4.9-6.2-7.5-9.1c-2.6-2.9-5.2-5.6-7.9-8
			c-2.7-2.4-5.2-4.5-7.7-6.1v32.5h-12.1V2.1L270.4,0v61.6c2.1-2.1,4.4-4.4,6.9-6.9c2.5-2.5,5-5.1,7.4-7.7c2.4-2.6,4.7-5.1,6.9-7.5
			c2.2-2.4,4-4.5,5.6-6.3h14.2c-2,2.2-4.2,4.5-6.5,7.1c-2.3,2.6-4.8,5.2-7.3,7.9c-2.5,2.6-5,5.3-7.6,7.9
			C287.4,58.9,285,61.4,282.7,63.7z"/>
		<path style="fill:#151719;" d="M332.1,21.1c-2.2,0-4-0.7-5.5-2.1c-1.5-1.4-2.3-3.4-2.3-5.8c0-2.4,0.8-4.4,2.3-5.8
			c1.5-1.4,3.4-2.1,5.5-2.1s4,0.7,5.5,2.1c1.5,1.4,2.3,3.4,2.3,5.8c0,2.4-0.8,4.4-2.3,5.8C336.2,20.3,334.3,21.1,332.1,21.1z
			 M338.3,100.9h-12.1V33.3h12.1V100.9z"/>
		<path style="fill:#151719;" d="M359.1,35.2c2.8-0.7,6.5-1.4,11.1-2.2c4.6-0.8,9.9-1.2,15.9-1.2c5.4,0,9.8,0.8,13.4,2.3
			c3.6,1.5,6.4,3.6,8.5,6.4c2.1,2.7,3.6,6,4.5,9.8c0.9,3.8,1.3,8,1.3,12.6v38h-12.1V65.5c0-4.2-0.3-7.7-0.8-10.7
			c-0.6-2.9-1.5-5.3-2.8-7.2c-1.3-1.8-3-3.1-5.2-4c-2.2-0.8-4.9-1.2-8.1-1.2c-1.3,0-2.6,0-4,0.1c-1.4,0.1-2.7,0.2-4,0.3
			c-1.3,0.1-2.4,0.3-3.4,0.5c-1,0.2-1.7,0.3-2.1,0.4v57.1h-12.1V35.2z"/>
		<path style="fill:#151719;" d="M476.1,94.1c-1,0.7-3.1,1.6-6,2.7c-3,1.1-6.5,1.6-10.5,1.6c-4.1,0-7.9-0.7-11.5-2s-6.7-3.3-9.4-6
			c-2.7-2.7-4.8-6.1-6.4-10.2c-1.6-4.1-2.3-8.9-2.3-14.6c0-4.9,0.7-9.5,2.2-13.6c1.5-4.1,3.6-7.7,6.4-10.7c2.8-3,6.3-5.3,10.3-7
			c4.1-1.7,8.7-2.5,13.8-2.5c5.6,0,10.6,0.4,14.8,1.2c4.2,0.8,7.7,1.6,10.6,2.3v60.3c0,10.4-2.7,17.9-8.1,22.6
			c-5.4,4.7-13.5,7-24.4,7c-4.2,0-8.3-0.3-12-1c-3.8-0.7-7-1.5-9.8-2.5l2.2-10.5c2.4,1,5.4,1.8,8.9,2.5c3.5,0.7,7.2,1.1,11,1.1
			c7.2,0,12.4-1.4,15.5-4.3c3.2-2.9,4.7-7.4,4.7-13.7V94.1z M475.9,43.9c-1.2-0.3-2.8-0.7-4.9-1c-2-0.3-4.8-0.5-8.3-0.5
			c-6.5,0-11.5,2.1-15,6.4c-3.5,4.2-5.3,9.9-5.3,16.9c0,3.9,0.5,7.2,1.5,10c1,2.8,2.3,5.1,4,6.9c1.7,1.8,3.6,3.2,5.9,4
			c2.2,0.9,4.5,1.3,6.8,1.3c3.2,0,6.2-0.5,8.8-1.4c2.7-0.9,4.8-2,6.4-3.2V43.9z"/>
	</g>
</g>
<g id="lion">
	<g>
		<polygon style="fill:#151719;" points="-125.9,96.6 -131.5,97.9 -132.4,96.8 -132.4,72 -131.5,71.4 -123.3,68.7 -117.2,68.7 
			-117.2,72 -113.2,70.8 -125.1,81.4 -124.9,74.9 -127.9,83.3 -129.7,85.2 -129.8,92.6 -125.2,92.6 -113.2,97.9 -107.8,98.3 
			-114.6,100.4 		"/>
		<polygon style="fill:#151719;" points="-117.2,66.5 -120.3,62.9 -121.5,50.8 		"/>
		<polygon style="fill:#151719;" points="-102.2,41.2 -112.2,41.2 -116,37.4 -115.1,46.5 -120.3,35.6 -112.2,28.2 -99.3,28.2 
			-90.3,33.9 -95.4,33.9 		"/>
		<polygon style="fill:#151719;" points="-113.5,177.4 -131.5,200.1 -138.7,177.5 -135,116.3 -131.5,116.3 -114.7,116.3 -106.7,108 
			-106.9,98.3 -99.6,92.8 -99.2,75.9 -112.9,49.9 -90.5,76.6 -80.5,63.9 -80.6,28.6 -90.7,12.6 -81.9,13.1 -114.2,-4.7 -128.2,0.5 
			-131.5,20.5 -132.5,10.3 -133.6,-46.9 -131.5,-46.9 -119.7,-46.9 -124.7,-35.1 -111.4,-46.9 -87.7,-46.9 -71.2,-30.2 
			-101.9,-30.7 -62.5,-22.9 -44,-8.5 -44.4,20.1 -54.6,11.9 -37,43.4 -37,64.4 -59.2,45.1 -37,77.9 -37,105.1 -45.2,114.5 
			-62.9,84.5 -50.5,119.8 -83.6,165.3 -98.2,141.3 -91.5,167.8 -108.4,175.5 -119.9,159.3 		"/>
	</g>
	<g>
		<polygon style="fill:#292C30;" points="-137.1,96.6 -131.5,97.9 -131.5,71.4 -139.7,68.7 -145.8,68.7 -145.8,72 -149.8,70.8 
			-137.9,81.4 -138.1,74.9 -135.1,83.3 -133.2,85.2 -133.2,92.6 -137.8,92.6 -149.8,97.9 -155.2,98.3 -148.4,100.4 		"/>
		<polygon style="fill:#292C30;" points="-145.8,66.5 -142.7,62.9 -141.5,50.8 		"/>
		<polygon style="fill:#292C30;" points="-160.7,41.2 -150.7,41.2 -147,37.4 -147.9,46.5 -142.7,35.6 -150.7,28.2 -163.7,28.2 
			-172.7,33.9 -167.6,33.9 		"/>
		<polygon style="fill:#292C30;" points="-149.5,177.4 -131.5,200.1 -131.5,116.3 -148.2,116.3 -156.2,108 -156.1,98.3 -163.4,92.8 
			-163.7,75.9 -150.1,49.9 -172.5,76.6 -182.5,63.9 -182.4,28.6 -172.2,12.6 -181.1,13.1 -148.7,-4.7 -134.7,0.5 -131.5,20.5 
			-131.5,-46.9 -143.3,-46.9 -138.2,-35.1 -151.6,-46.9 -175.3,-46.9 -191.7,-30.2 -161.1,-30.7 -200.5,-22.9 -219,-8.5 
			-218.6,20.1 -208.4,11.9 -226,43.4 -226,64.4 -203.8,45.1 -226,77.9 -226,105.1 -217.7,114.5 -200.1,84.5 -212.5,119.8 
			-179.4,165.3 -164.7,141.3 -171.5,167.8 -154.6,175.5 -143.1,159.3 		"/>
	</g>
</g>
</svg>
