<?xml version="1.0" encoding="utf-8"?>
<!-- Generator: Adobe Illustrator 20.1.0, SVG Export Plug-In . SVG Version: 6.00 Build 0)  -->
<svg version="1.1" id="Слой_1" xmlns="http://www.w3.org/2000/svg" xmlns:xlink="http://www.w3.org/1999/xlink" x="0px" y="0px"
	 viewBox="0 0 386.9 122.2" style="enable-background:new 0 0 386.9 122.2;" xml:space="preserve">
<g>
	<path style="fill:#F1D9AD;" d="M0.3,50.3L16.4,0.2h5.9l17.1,50.1h-6.3l-4.8-15.2H10.7L6.2,50.3H0.3z M12.3,29.7h14.2l-4.3-13.9
		c-1.3-4.3-2.3-7.7-2.9-10.4c-0.5,3.2-1.3,6.4-2.3,9.6L12.3,29.7z"/>
	<path style="fill:#F1D9AD;" d="M43.4,50.3V0.2h5.5v44.2h20.5v5.9H43.4z"/>
	<path style="fill:#F1D9AD;" d="M82.6,50.3V6.1H68.8V0.2h33v5.9H88.1v44.2H82.6z"/>
	<path style="fill:#F1D9AD;" d="M107.6,50.3V0.2h30.1v5.9h-24.6v15.3h23.1v5.9h-23.1v17.1h25.6v5.9H107.6z"/>
	<path style="fill:#F1D9AD;" d="M146.3,50.3V0.2h18.5c3.9,0,6.7,0.5,8.5,1.4c1.8,0.9,3.3,2.5,4.5,4.7c1.2,2.2,1.8,4.7,1.8,7.6
		c0,3.8-1,6.8-3,9.2c-2,2.3-4.9,3.8-8.7,4.5c1.5,0.9,2.7,1.8,3.5,2.8c1.6,1.9,3.1,4,4.3,6.4l7.3,13.6h-6.9l-5.6-10.4
		c-2.2-4.1-3.8-6.8-4.9-8.2c-1.1-1.4-2.2-2.4-3.2-2.9c-1-0.5-2.5-0.7-4.3-0.7h-6.4v22.3H146.3z M151.8,22.3h11.9
		c2.6,0,4.6-0.3,5.9-0.9s2.4-1.6,3.2-2.9c0.8-1.3,1.2-2.9,1.2-4.6c0-2.5-0.8-4.5-2.3-6c-1.5-1.4-3.7-2.2-6.7-2.2h-13.2V22.3z"/>
	<path style="fill:#F1D9AD;" d="M188.1,50.3V0.2h5.7l21.9,39.4V0.2h5.3v50.1h-5.7l-21.9-39.4v39.4H188.1z"/>
	<path style="fill:#F1D9AD;" d="M225.8,50.3l16.1-50.1h5.9l17.1,50.1h-6.3l-4.8-15.2h-17.5l-4.5,15.2H225.8z M237.7,29.7h14.2
		l-4.3-13.9c-1.3-4.3-2.3-7.7-2.9-10.4c-0.5,3.2-1.3,6.4-2.3,9.6L237.7,29.7z"/>
	<path style="fill:#F1D9AD;" d="M275.6,50.3V6.1h-13.7V0.2h33v5.9h-13.8v44.2H275.6z"/>
	<path style="fill:#F1D9AD;" d="M301.5,50.3V0.2h5.5v50.1H301.5z"/>
	<path style="fill:#F1D9AD;" d="M328.6,50.3L312.4,0.2h6l10.9,36.4c0.8,2.8,1.6,5.6,2.2,8.2c0.6-2.8,1.4-5.5,2.2-8.2L345,0.2h5.6
		l-16.3,50.1H328.6z"/>
	<path style="fill:#F1D9AD;" d="M355.6,50.3V0.2h30.1v5.9h-24.6v15.3h23.1v5.9h-23.1v17.1h25.6v5.9H355.6z"/>
	<path style="fill:#1A1E1A;" d="M111.4,121.3V79h4.7v42.3H111.4z"/>
	<path style="fill:#1A1E1A;" d="M124.1,121.3V79h4.8l18.5,33.3V79h4.5v42.3H147L128.5,88v33.3H124.1z"/>
	<path style="fill:#1A1E1A;" d="M169.8,121.3L156.1,79h5l9.2,30.8c0.7,2.4,1.3,4.7,1.8,6.9c0.5-2.3,1.2-4.6,1.9-6.9l9.5-30.8h4.7
		l-13.8,42.3H169.8z"/>
	<path style="fill:#1A1E1A;" d="M192.6,121.3V79h25.5v5h-20.8v12.9h19.5v5h-19.5v14.4h21.6v5H192.6z"/>
	<path style="fill:#1A1E1A;" d="M223.7,107.7l4.4-0.5c0.2,2.3,0.8,4.1,1.6,5.4c0.8,1.3,2,2.3,3.6,3.1c1.5,0.8,3.3,1.2,5.2,1.2
		c2.8,0,4.9-0.7,6.5-2c1.5-1.3,2.3-3.1,2.3-5.2c0-1.2-0.3-2.3-0.8-3.3s-1.4-1.7-2.5-2.3c-1.1-0.6-3.5-1.4-7.3-2.5
		c-3.3-1-5.7-1.9-7.1-2.9s-2.5-2.2-3.3-3.7c-0.8-1.5-1.2-3.2-1.2-5.1c0-3.4,1.1-6.2,3.4-8.4c2.2-2.2,5.3-3.3,9.1-3.3
		c2.6,0,4.9,0.5,6.9,1.5c2,1,3.5,2.5,4.6,4.4c1.1,1.9,1.7,4.1,1.7,6.7l-4.5,0.4c-0.2-2.8-1.1-4.8-2.5-6.1c-1.4-1.3-3.5-2-6-2
		c-2.6,0-4.6,0.6-6,1.7c-1.4,1.2-2.1,2.7-2.1,4.5c0,1.7,0.5,3,1.5,4c1,0.9,3.3,1.9,6.9,2.9c3.5,0.9,5.9,1.8,7.3,2.5
		c2.1,1.1,3.8,2.5,4.9,4.3s1.6,3.9,1.6,6.3c0,2.4-0.6,4.6-1.7,6.6s-2.7,3.5-4.7,4.5s-4.4,1.6-7.2,1.6c-4.4,0-7.8-1.3-10.4-3.9
		C225.2,115.6,223.8,112.1,223.7,107.7z"/>
	<path style="fill:#1A1E1A;" d="M267.2,121.3V84h-11.6v-5h27.9v5h-11.7v37.3H267.2z"/>
</g>
<g>
</g>
<g>
</g>
<g>
</g>
<g>
</g>
<g>
</g>
</svg>
