<?xml version="1.0" encoding="utf-8"?>
<!-- Generator: Adobe Illustrator 20.1.0, SVG Export Plug-In . SVG Version: 6.00 Build 0)  -->
<svg version="1.1" id="Слой_1" xmlns="http://www.w3.org/2000/svg" xmlns:xlink="http://www.w3.org/1999/xlink" x="0px" y="0px"
	 viewBox="0 0 232.4 57.4" style="enable-background:new 0 0 232.4 57.4;" xml:space="preserve">
<g>
	<path style="fill:#007700;" d="M38,15.7l-9.2-0.1c-0.6,0-0.9-0.5-0.9-1.4c0-4.2-0.7-7.1-2-8.9c-0.9-1.2-2.1-1.8-3.6-1.8
		c-2.3,0-3.9,1.2-4.8,3.6c-0.6,1.6-0.9,3.4-0.9,5.5l-0.2,4c0,3,0.6,5.3,1.9,6.7c1.1,1.2,4,2.1,8.6,2.8c4.7,0.7,8.1,2.4,10.4,5.1
		c1.7,2,2.5,4.3,2.5,6.9c0,3.4-0.7,6.2-2,8.4c-2.1,3.5-5.6,5.2-10.5,5.2c-1.6,0-3-0.1-4.1-0.3c-1.2-0.2-2.5-0.6-4.1-1.1
		c-1.5-0.5-3-1.1-4.5-1.6c-0.7-0.2-1.3-0.3-2-0.3c-2,0-3,1.5-3,4.6v2.5c0,0.3-0.3,0.4-0.9,0.4c-0.2,0-0.6,0-1.2,0
		c-0.6,0-1.1,0-1.5,0c-0.4,0-0.9,0-1.3,0.1c-0.5,0.1-1.1,0.3-1.8,0.6c-0.7,0.3-1.2,0.5-1.3,0.5c-0.4,0-0.8-0.4-1.1-1.2
		C0.1,55.4,0,54.4,0,53.1c0-2.5,0.7-4.6,2.2-6.2c1.4-1.6,3.5-2.4,6.2-2.4c2,0,5.5,0.8,10.5,2.5c0.6,0.2,1.2,0.5,1.8,0.6
		c0.6,0.2,1.2,0.3,1.8,0.3c2.2,0,3.7-1.3,4.5-4c0.5-1.7,0.8-4,0.8-7.1c0-2.5-0.6-4.4-1.7-5.8c-1.4-1.8-4.1-3-8-3.4
		c-3.9-0.4-6.7-1.1-8.4-1.9c-3.7-1.9-5.6-5.2-5.6-9.9c0-4.9,1.9-8.7,5.8-11.4C13.4,2.2,17.3,1,21.9,1c5.2,0,9.4,1.5,12.7,4.5
		c2.9,2.6,4.3,5.5,4.3,8.8C38.9,15.2,38.6,15.7,38,15.7z"/>
	<path style="fill:#007700;" d="M60.8,4.8L70,42c1.2-3.6,2-6.3,2.4-7.9c0.5-1.6,1-3.4,1.4-5.4c2.4-9.6,3.7-14.4,3.7-14.6
		c1.3-4.6,2.7-7.8,4-9.7C83.3,2.1,85.4,1,88,1c0.8,0,1.6,0.1,2.3,0.3C91,1.5,91.6,1.6,92,1.7c0.4,0.1,0.8,0.2,1.2,0.3
		c0.5,0.2,0.8,0.5,0.8,0.8c-0.2,0.3-0.5,0.9-0.8,1.8c-0.3,0.9-0.4,1.9-0.5,2.9c-0.1,1.1-0.1,1.7-0.1,2.1c0,0.3,0,0.6,0,0.8v1.9h-1.1
		c-1.1-0.6-1.7-1-2-1.1c-0.6-0.2-1.2-0.4-2-0.4c-3.2,0-5.7,3.4-7.4,10.2c-1,3.6-2.4,8.4-4.2,14.3l-1.4,5c0,0.2-0.4,1.2-0.9,3
		c-0.2,0.8-0.6,2-1,3.7h3.2v2.9H61.3l-11.4-45h-5.7V2h21.5v2.9H60.8z"/>
	<path style="fill:#007700;" d="M112.8,3.9h-5.3V1h21.2v2.9h-5.3L136,47h4.8v2.9h-20.5V47h5.2l-5.1-17.7c-1.2,5.3-3.1,10-5.8,14.1
		c-3.3,4.9-6.7,7.4-10.4,7.4c-2.2,0-4-0.6-5.3-1.9c-1.6-1.5-2.4-3.6-2.4-6.4c0-2.4,0.6-5.2,1.7-8.3c1-2.6,2.4-5.6,4.3-9
		c1.4-2.4,3.2-5.4,5.5-8.9c1-1.4,1.9-2.9,2.9-4.4c1.4-2.2,2.1-4.2,2.1-6C112.9,5,112.9,4.4,112.8,3.9z M118.3,22.7l-3.1-10.8
		c-1.5,2.1-2.9,4-4,5.8c-0.8,1.2-1.6,2.7-2.6,4.5c-1.2,2.1-2.1,3.9-2.8,5.6c-1.2,2.7-1.8,5.1-2,7.3v1.7c0.2,1.2,0.6,2.1,1.3,2.6
		c0.7,0.5,1.5,0.8,2.6,0.8c2.5,0,4.9-2.2,7.1-6.7C116.7,29.8,117.8,26.2,118.3,22.7z"/>
	<path style="fill:#007700;" d="M163.4,0c0.5,0,1,0.3,1.7,1c0.4,0.5,0.8,0.9,1.2,1.4c1.1,1.1,1.8,1.9,2.3,2.3
		c0.5,0.5,1.9,1.7,4.1,3.6c3.8,3.3,6.3,6.4,7.6,9.2c1.1,2.3,1.6,5,1.6,8c0,3.2-0.6,6.1-1.9,8.7c-1.1,2.2-2.8,4.5-5.1,6.9
		s-4.8,4.8-7.2,7.2c-2.2,2.2-3.7,3.3-4.6,3.3c-0.5,0-1.2-0.3-2-0.9c-0.8-0.6-2.5-1.9-5-4c-4.1-3.6-6.8-6.2-8.1-7.9
		c-2.7-3.6-4-7.7-4-12.3c0-4.9,1.6-9.5,4.9-14c2-2.7,4.8-5.5,8.5-8.5c0.8-0.6,1.4-1.1,1.7-1.3c0.3-0.3,0.7-0.6,1.2-1.2
		c0.5-0.5,1-0.9,1.4-1.2C162.2,0.2,162.7,0,163.4,0z M158.9,9.2c-2.4,0.3-4.4,1.5-6,3.5c-1.5,2-2.3,4.2-2.3,6.5
		c0,2.1,0.9,4.5,2.7,7.1c1.6,2.4,4.2,5.3,7.6,8.7c2.2,2.1,3.6,3.7,4.3,4.6c0.7,1,1.2,2.1,1.3,3.2c2-0.8,3.9-2.1,5.5-3.8
		c1.7-1.7,2.7-3.6,3-5.6c0.1-0.5,0.1-0.9,0.1-1.2s0-0.7-0.1-1.2c-0.3-2-1.8-4.6-4.4-7.6c-2.1-2.3-3.6-4.1-4.7-5.3
		c-2.6-2.9-4-4.4-4.2-4.6C160.2,11.9,159.3,10.4,158.9,9.2z"/>
	<path style="fill:#007700;" d="M232.4,49.8h-17.6V47h2.7c0-7.5-1.5-13-4.5-16.6c-2.5-2.9-5.7-4.4-9.8-4.4v21h3.4v2.9H187V47h5.6
		V4.8H187V2h30.7c3.8,0,6.4,0.3,7.6,0.8c1.9,0.8,2.9,2.6,2.9,5.3c0,3.7-1.5,7-4.5,9.8c-3.6,3.3-8.9,5.4-15.9,6.3v1
		c5.7,0,10.5,1.7,14.5,5c4.6,3.9,6.9,9.5,6.9,16.7h3.2V49.8z M216.3,9c0-1.8-0.7-3-2-3.6c-0.8-0.4-1.9-0.6-3.3-0.6h-7.8V21
		c3.7,0,6.9-1.3,9.5-3.8C215.1,14.8,216.3,12.1,216.3,9z"/>
</g>
<rect id="_x3C_Фрагмент_x3E_" x="-1.8" y="-5.8" style="fill:none;" width="235" height="70"/>
<g>
</g>
<g>
</g>
<g>
</g>
<g>
</g>
<g>
</g>
</svg>
