<?xml version="1.0" encoding="utf-8"?>
<!-- Generator: Adobe Illustrator 20.1.0, SVG Export Plug-In . SVG Version: 6.00 Build 0)  -->
<svg version="1.1"
	 id="svg2" inkscape:version="0.48.3.1 r9886" sodipodi:docname="htmlcss.svg" xmlns:cc="http://creativecommons.org/ns#" xmlns:dc="http://purl.org/dc/elements/1.1/" xmlns:inkscape="http://www.inkscape.org/namespaces/inkscape" xmlns:rdf="http://www.w3.org/1999/02/22-rdf-syntax-ns#" xmlns:sodipodi="http://sodipodi.sourceforge.net/DTD/sodipodi-0.dtd" xmlns:svg="http://www.w3.org/2000/svg"
	 xmlns="http://www.w3.org/2000/svg" xmlns:xlink="http://www.w3.org/1999/xlink" x="0px" y="0px" viewBox="0 0 362.7 411.4"
	 style="enable-background:new 0 0 362.7 411.4;" xml:space="preserve">
<sodipodi:namedview  bordercolor="#666666" borderopacity="1.0" fit-margin-bottom="0" fit-margin-left="0" fit-margin-right="0" fit-margin-top="0" id="base" inkscape:current-layer="layer1" inkscape:cx="-276.49014" inkscape:cy="244.10462" inkscape:document-units="px" inkscape:pageopacity="0.0" inkscape:pageshadow="2" inkscape:window-height="938" inkscape:window-maximized="1" inkscape:window-width="1280" inkscape:window-x="0" inkscape:window-y="31" inkscape:zoom="0.35" pagecolor="#ffffff" showgrid="false">
	</sodipodi:namedview>
<g id="layer1" transform="translate(-170.06157,-270.18109)" inkscape:groupmode="layer" inkscape:label="Calque 1">
	<g id="g3013" transform="translate(95.428571,270.18109)">
		<polygon id="polygon2989" style="fill:#264DE4;" points="255.8,411.4 107.6,370.3 74.6,0 437.4,0 404.3,370.2 		"/>
		<polygon id="polygon2991" style="fill:#2965F1;" points="376,346.6 404.3,30.3 256,30.3 256,379.9 		"/>
		<polygon id="polygon2993" style="fill:#EBEBEB;" points="150.3,167.6 154.4,213 256,213 256,167.6 		"/>
		<polygon id="polygon2995" style="fill:#EBEBEB;" points="142.1,75.7 146.3,121.1 256,121.1 256,75.7 255.8,75.7 		"/>
		<polygon id="polygon2997" style="fill:#EBEBEB;" points="256,285.5 255.8,285.6 205.2,271.9 202,235.7 177.4,235.7 156.4,235.7 
			162.8,307 255.8,332.8 256,332.8 		"/>
		<path id="path2999" inkscape:connector-curvature="0" d="M160-100.6h55v23h-32v23h32v23h-55V-100.6z"/>
		<path id="path3001" inkscape:connector-curvature="0" d="M226-100.6h55v20h-32v4h32v46h-55v-21h32v-4h-32V-100.6z"/>
		<path id="path3003" inkscape:connector-curvature="0" d="M292-100.6h55v20h-32v4h32v46h-55v-21h32v-4h-32V-100.6z"/>
		<polygon id="polygon3005" style="fill:#FFFFFF;" points="361.4,167.6 369.6,75.7 255.8,75.7 255.8,121.1 319.8,121.1 315.7,167.6 
			255.8,167.6 255.8,213 311.8,213 306.5,271.9 255.8,285.6 255.8,332.8 348.9,307 349.6,299.3 360.3,179.8 		"/>
	</g>
	<g id="g3054" transform="translate(524,270.18109)">
		<polygon id="polygon3028" style="fill:#E44D26;" points="437.4,0 404.3,370.2 255.8,411.4 107.6,370.3 74.6,0 		"/>
		<polygon id="polygon3030" style="fill:#F16529;" points="256,379.9 376,346.6 404.3,30.3 256,30.3 		"/>
		<polygon id="polygon3032" style="fill:#EBEBEB;" points="191.8,121.1 256,121.1 256,75.7 255.8,75.7 142.1,75.7 143.2,87.9 
			154.4,213 256,213 256,167.6 195.9,167.6 		"/>
		<polygon id="polygon3034" style="fill:#EBEBEB;" points="202,235.7 177.4,235.7 156.4,235.7 162.8,307 255.8,332.8 256,332.8 
			256,285.5 255.8,285.6 205.2,271.9 		"/>
		<path id="path3036" inkscape:connector-curvature="0" d="M108.4-100.6h23.1v22.8h21.1v-22.8h23.1v69h-23.1v-23.1h-21.1v23.1h-23.1
			L108.4-100.6L108.4-100.6z"/>
		<path id="path3038" inkscape:connector-curvature="0" d="M206-77.7h-20.3v-22.9h63.7v22.9h-20.3v46.1H206L206-77.7L206-77.7z"/>
		<path id="path3040" inkscape:connector-curvature="0" d="M259.5-100.6h24.1l14.8,24.3l14.8-24.3h24.1v69h-23v-34.2l-15.9,24.5H298
			l-15.9-24.5v34.2h-22.6L259.5-100.6L259.5-100.6z"/>
		<path id="path3042" inkscape:connector-curvature="0" d="M348.7-100.6h23.1v46.2h32.5v22.8h-55.5V-100.6z"/>
		<polygon id="polygon3044" style="fill:#FFFFFF;" points="255.8,213 311.8,213 306.5,271.9 255.8,285.6 255.8,332.8 348.9,307 
			349.6,299.3 360.3,179.8 361.4,167.6 349.2,167.6 255.8,167.6 		"/>
		<polygon id="polygon3046" style="fill:#FFFFFF;" points="255.8,121 255.8,121.1 365.4,121.1 365.4,121.1 365.5,121.1 366.4,110.9 
			368.5,87.9 369.6,75.7 255.8,75.7 255.8,103.9 		"/>
	</g>
</g>
</svg>
