<?xml version="1.0" encoding="utf-8"?>
<!-- Generator: Adobe Illustrator 20.1.0, SVG Export Plug-In . SVG Version: 6.00 Build 0)  -->
<svg version="1.1"
	 id="svg2" inkscape:version="0.48.3.1 r9886" sodipodi:docname="htmlcss.svg" xmlns:cc="http://creativecommons.org/ns#" xmlns:dc="http://purl.org/dc/elements/1.1/" xmlns:inkscape="http://www.inkscape.org/namespaces/inkscape" xmlns:rdf="http://www.w3.org/1999/02/22-rdf-syntax-ns#" xmlns:sodipodi="http://sodipodi.sourceforge.net/DTD/sodipodi-0.dtd" xmlns:svg="http://www.w3.org/2000/svg"
	 xmlns="http://www.w3.org/2000/svg" xmlns:xlink="http://www.w3.org/1999/xlink" x="0px" y="0px" viewBox="0 0 362.7 411.4"
	 style="enable-background:new 0 0 362.7 411.4;" xml:space="preserve">
<sodipodi:namedview  bordercolor="#666666" borderopacity="1.0" fit-margin-bottom="0" fit-margin-left="0" fit-margin-right="0" fit-margin-top="0" id="base" inkscape:current-layer="layer1" inkscape:cx="-276.49014" inkscape:cy="244.10462" inkscape:document-units="px" inkscape:pageopacity="0.0" inkscape:pageshadow="2" inkscape:window-height="938" inkscape:window-maximized="1" inkscape:window-width="1280" inkscape:window-x="0" inkscape:window-y="31" inkscape:zoom="0.35" pagecolor="#ffffff" showgrid="false">
	</sodipodi:namedview>
<g id="layer1" transform="translate(-170.06157,-270.18109)" inkscape:groupmode="layer" inkscape:label="Calque 1">
	<g id="g3013" transform="translate(95.428571,270.18109)">
		<polygon id="polygon2989" style="fill:#264DE4;" points="-172.8,411.4 -320.9,370.3 -353.9,0 8.8,0 -24.3,370.2 		"/>
		<polygon id="polygon2991" style="fill:#2965F1;" points="-52.5,346.6 -24.3,30.3 -172.6,30.3 -172.6,379.9 		"/>
		<polygon id="polygon2993" style="fill:#EBEBEB;" points="-278.3,167.6 -274.2,213 -172.6,213 -172.6,167.6 		"/>
		<polygon id="polygon2995" style="fill:#EBEBEB;" points="-286.4,75.7 -282.3,121.1 -172.6,121.1 -172.6,75.7 -172.7,75.7 		"/>
		<polygon id="polygon2997" style="fill:#EBEBEB;" points="-172.6,285.5 -172.8,285.6 -223.3,271.9 -226.6,235.7 -251.2,235.7 
			-272.2,235.7 -265.8,307 -172.8,332.8 -172.6,332.8 		"/>
		<path id="path2999" inkscape:connector-curvature="0" d="M-268.6-100.6h55v23h-32v23h32v23h-55V-100.6z"/>
		<path id="path3001" inkscape:connector-curvature="0" d="M-202.6-100.6h55v20h-32v4h32v46h-55v-21h32v-4h-32V-100.6z"/>
		<path id="path3003" inkscape:connector-curvature="0" d="M-136.6-100.6h55v20h-32v4h32v46h-55v-21h32v-4h-32V-100.6z"/>
		<polygon id="polygon3005" style="fill:#FFFFFF;" points="-67.2,167.6 -59,75.7 -172.7,75.7 -172.7,121.1 -108.7,121.1 
			-112.9,167.6 -172.7,167.6 -172.7,213 -116.8,213 -122.1,271.9 -172.7,285.6 -172.7,332.8 -79.6,307 -79,299.3 -68.3,179.8 		"/>
	</g>
	<g id="g3054" transform="translate(524,270.18109)">
		<polygon id="polygon3028" style="fill:#E44D26;" points="8.8,0 -24.3,370.2 -172.8,411.4 -320.9,370.3 -353.9,0 		"/>
		<polygon id="polygon3030" style="fill:#F16529;" points="-172.6,379.9 -52.5,346.6 -24.3,30.3 -172.6,30.3 		"/>
		<polygon id="polygon3032" style="fill:#EBEBEB;" points="-236.8,121.1 -172.6,121.1 -172.6,75.7 -172.7,75.7 -286.4,75.7 
			-285.4,87.9 -274.2,213 -172.6,213 -172.6,167.6 -232.7,167.6 		"/>
		<polygon id="polygon3034" style="fill:#EBEBEB;" points="-226.6,235.7 -251.2,235.7 -272.2,235.7 -265.8,307 -172.8,332.8 
			-172.6,332.8 -172.6,285.5 -172.8,285.6 -223.3,271.9 		"/>
		<path id="path3036" inkscape:connector-curvature="0" d="M-320.2-100.6h23.1v22.8h21.1v-22.8h23.1v69H-276v-23.1h-21.1v23.1h-23.1
			L-320.2-100.6L-320.2-100.6z"/>
		<path id="path3038" inkscape:connector-curvature="0" d="M-222.6-77.7h-20.3v-22.9h63.7v22.9h-20.3v46.1h-23.1L-222.6-77.7
			L-222.6-77.7z"/>
		<path id="path3040" inkscape:connector-curvature="0" d="M-169.1-100.6h24.1l14.8,24.3l14.8-24.3h24.1v69h-23v-34.2l-15.9,24.5
			h-0.4l-15.9-24.5v34.2h-22.6L-169.1-100.6L-169.1-100.6z"/>
		<path id="path3042" inkscape:connector-curvature="0" d="M-79.9-100.6h23.1v46.2h32.5v22.8h-55.5V-100.6z"/>
		<polygon id="polygon3044" style="fill:#FFFFFF;" points="-172.7,213 -116.8,213 -122.1,271.9 -172.7,285.6 -172.7,332.8 
			-79.6,307 -79,299.3 -68.3,179.8 -67.2,167.6 -79.4,167.6 -172.7,167.6 		"/>
		<polygon id="polygon3046" style="fill:#FFFFFF;" points="-172.7,121 -172.7,121.1 -63.2,121.1 -63.2,121.1 -63,121.1 -62.1,110.9 
			-60.1,87.9 -59,75.7 -172.7,75.7 -172.7,103.9 		"/>
	</g>
</g>
</svg>
