<?xml version="1.0" encoding="utf-8"?>
<!-- Generator: Adobe Illustrator 20.1.0, SVG Export Plug-In . SVG Version: 6.00 Build 0)  -->
<svg version="1.1" id="Layer_1" xmlns="http://www.w3.org/2000/svg" xmlns:xlink="http://www.w3.org/1999/xlink" x="0px" y="0px"
	 viewBox="0 0 74.1 71.5" style="enable-background:new 0 0 74.1 71.5;" xml:space="preserve">
<g>
	<g>
		<path style="fill:#0868AC;" d="M4.9,16.4c-6.7,9.4-6,21.7-1.1,31.7c0.1,0.2,0.2,0.5,0.4,0.7c0.1,0.2,0.2,0.3,0.2,0.5
			c0,0.1,0.1,0.2,0.2,0.3c0.1,0.2,0.2,0.3,0.3,0.5c0.2,0.3,0.3,0.6,0.5,0.8c0.1,0.2,0.2,0.3,0.3,0.4c0.2,0.3,0.4,0.6,0.5,0.9
			c0.1,0.1,0.2,0.3,0.2,0.4c0.3,0.4,0.5,0.8,0.8,1.2c0,0,0,0,0,0c0,0.1,0.1,0.1,0.1,0.2c0.2,0.3,0.5,0.7,0.7,1
			c0.1,0.1,0.2,0.2,0.3,0.3c0.2,0.3,0.4,0.6,0.7,0.8c0.1,0.1,0.2,0.2,0.3,0.3c0.3,0.4,0.6,0.7,0.9,1.1c0,0,0,0,0,0c0,0,0,0,0,0
			c0.3,0.3,0.6,0.7,1,1c0.1,0.1,0.2,0.2,0.3,0.3c0.3,0.3,0.5,0.5,0.8,0.8c0.1,0.1,0.2,0.2,0.3,0.3c0.3,0.3,0.7,0.7,1,1c0,0,0,0,0,0
			c0.1,0.1,0.1,0.1,0.2,0.2c0.3,0.3,0.6,0.6,1,0.8c0.1,0.1,0.3,0.2,0.4,0.3c0.3,0.2,0.5,0.4,0.8,0.6c0.1,0.1,0.3,0.2,0.4,0.3
			c0.3,0.2,0.6,0.4,0.9,0.7c0.1,0.1,0.2,0.2,0.3,0.2c0,0,0.1,0,0.1,0.1c0.3,0.2,0.6,0.4,0.9,0.6c0.1,0.1,0.3,0.2,0.4,0.3
			c0.4,0.3,0.9,0.6,1.3,0.9c0.1,0.1,0.2,0.1,0.4,0.2c0.3,0.2,0.7,0.4,1,0.6c0.2,0.1,0.4,0.2,0.5,0.3c0.3,0.1,0.5,0.3,0.7,0.4
			c0,0,0.1,0.1,0.2,0.1c0.1,0.1,0.2,0.1,0.3,0.1c0.4,0.2,0.8,0.4,1.1,0.6c0.1,0,0.2,0.1,0.3,0.1c0.4,0.2,0.9,0.4,1.3,0.6
			c0.1,0.1,0.2,0.1,0.3,0.1c0.4,0.2,0.8,0.3,1.3,0.5c0.1,0,0.1,0,0.2,0.1c0.5,0.2,0.9,0.3,1.4,0.5c0.1,0,0.2,0.1,0.3,0.1
			c0.5,0.2,1,0.3,1.5,0.4c31.7,6.2,41.2-18.6,41.2-18.6c-7.9,10-21.6,12.5-34.6,9.4c-0.5-0.1-1-0.3-1.4-0.4c-0.1,0-0.2-0.1-0.4-0.1
			c-0.5-0.2-0.9-0.3-1.4-0.5c-0.1,0-0.1,0-0.2-0.1c-0.4-0.2-0.8-0.3-1.2-0.5c-0.1-0.1-0.2-0.1-0.3-0.1c-0.4-0.2-0.9-0.4-1.3-0.6
			c-0.1,0-0.2-0.1-0.3-0.1c-0.4-0.2-0.8-0.3-1.1-0.5c-0.1-0.1-0.2-0.1-0.3-0.2c-0.3-0.2-0.6-0.3-0.9-0.5c-0.2-0.1-0.4-0.2-0.6-0.3
			c-0.3-0.2-0.7-0.4-1-0.6c-0.1-0.1-0.2-0.1-0.3-0.2c-0.5-0.3-0.9-0.6-1.4-0.8c-0.1-0.1-0.2-0.2-0.4-0.3c-0.3-0.2-0.6-0.4-1-0.7
			c-0.1-0.1-0.2-0.2-0.3-0.2c-0.3-0.2-0.6-0.4-0.9-0.7c-0.1-0.1-0.3-0.2-0.4-0.3c-0.3-0.2-0.5-0.4-0.8-0.7c-0.1-0.1-0.3-0.2-0.4-0.3
			c-0.3-0.3-0.7-0.6-1-0.9c0,0-0.1-0.1-0.1-0.1c-0.4-0.3-0.7-0.7-1.1-1c-0.1-0.1-0.2-0.2-0.3-0.3c-0.3-0.3-0.5-0.5-0.8-0.8
			c-0.1-0.1-0.2-0.2-0.3-0.3c-0.3-0.3-0.6-0.7-0.9-1c0,0,0,0,0-0.1c-0.3-0.4-0.6-0.7-1-1.1c-0.1-0.1-0.2-0.2-0.3-0.3
			c-0.2-0.3-0.5-0.6-0.7-0.9c-0.1-0.1-0.2-0.2-0.3-0.3c-0.3-0.4-0.5-0.7-0.8-1.1C6.6,34.7,4.1,21.1,10,10"/>
		<path style="fill:#0868AC;" d="M25.4,8.7c-4.8,6.8-4.7,15.9-1.1,23.2c0.6,1.2,1.3,2.4,2.1,3.5c0.7,1,1.5,2.3,2.4,3.1
			c0.3,0.4,0.7,0.8,1,1.1c0.1,0.1,0.2,0.2,0.3,0.3c0.3,0.3,0.7,0.7,1.1,1c0,0,0,0,0,0c0,0,0,0,0,0c0.4,0.4,0.8,0.7,1.2,1.1
			c0.1,0.1,0.2,0.2,0.3,0.2c0.4,0.3,0.9,0.7,1.3,1c0,0,0,0,0,0c0.2,0.1,0.4,0.3,0.6,0.4c0.1,0.1,0.2,0.1,0.3,0.2
			c0.3,0.2,0.7,0.4,1,0.6c0.1,0,0.1,0.1,0.1,0.1c0.3,0.2,0.6,0.3,0.9,0.5c0.1,0.1,0.2,0.1,0.3,0.2c0.2,0.1,0.4,0.2,0.6,0.3
			c0,0,0.1,0,0.1,0c0.4,0.2,0.8,0.4,1.3,0.6c0.1,0,0.2,0.1,0.3,0.1c0.3,0.2,0.7,0.3,1,0.4c0.2,0.1,0.3,0.1,0.4,0.2
			c0.3,0.1,0.6,0.2,1,0.3c0.1,0.1,0.3,0.1,0.4,0.1c0.4,0.2,0.9,0.3,1.4,0.4c24.5,4.3,30.3-14.5,30.3-14.5C68.9,40.6,59,44,48.5,41.2
			c-0.5-0.1-0.9-0.3-1.4-0.4c-0.1,0-0.3-0.1-0.4-0.1c-0.3-0.1-0.7-0.2-1-0.3c-0.2-0.1-0.3-0.1-0.4-0.2c-0.3-0.1-0.7-0.3-1-0.4
			c-0.1,0-0.2-0.1-0.3-0.1c-0.4-0.2-0.9-0.4-1.3-0.6c-0.2-0.1-0.4-0.2-0.7-0.3c-0.1-0.1-0.2-0.1-0.4-0.2c-0.3-0.2-0.5-0.3-0.8-0.5
			c-0.1,0-0.1-0.1-0.2-0.1c-0.3-0.2-0.7-0.4-1-0.6c-0.1-0.1-0.2-0.1-0.3-0.2c-0.2-0.1-0.4-0.3-0.6-0.4c-0.4-0.3-0.9-0.7-1.3-1
			c-0.1-0.1-0.2-0.2-0.3-0.2c-4.6-3.7-8.2-8.7-9.8-14.4c-1.8-5.9-1.3-12.4,1.9-17.7"/>
		<path style="fill:#0868AC;" d="M42.2,2.9C39.4,7,39.1,12.1,41,16.7c2.1,4.8,6.2,8.6,11.1,10.4c0.2,0.1,0.4,0.1,0.6,0.2
			c0.1,0,0.2,0.1,0.3,0.1c0.3,0.1,0.6,0.2,0.9,0.3c13.5,2.6,17.2-7,18.2-8.4c-3.2,4.6-8.6,5.7-15.3,4.1c-0.5-0.1-1.1-0.3-1.6-0.5
			c-0.6-0.2-1.3-0.5-1.9-0.8c-1.2-0.6-2.3-1.3-3.3-2C44.1,15.6,40.4,7,44.3,0"/>
	</g>
</g>
<g style="opacity:0.5;">
	<g>
		<path style="fill:#535353;" d="M144.9,16.4c-6.7,9.4-6,21.7-1.1,31.7c0.1,0.2,0.2,0.5,0.4,0.7c0.1,0.2,0.1,0.3,0.2,0.5
			c0,0.1,0.1,0.2,0.1,0.3c0.1,0.2,0.2,0.3,0.3,0.5c0.1,0.3,0.3,0.6,0.5,0.8c0.1,0.2,0.2,0.3,0.3,0.4c0.2,0.3,0.4,0.6,0.5,0.9
			c0.1,0.1,0.2,0.3,0.2,0.4c0.3,0.4,0.5,0.8,0.8,1.2c0,0,0,0,0,0c0,0.1,0.1,0.1,0.1,0.2c0.2,0.3,0.5,0.7,0.7,1
			c0.1,0.1,0.2,0.2,0.3,0.3c0.2,0.3,0.4,0.6,0.7,0.8c0.1,0.1,0.2,0.2,0.3,0.3c0.3,0.4,0.6,0.7,0.9,1.1c0,0,0,0,0,0c0,0,0,0,0,0
			c0.3,0.3,0.6,0.7,0.9,1c0.1,0.1,0.2,0.2,0.3,0.3c0.3,0.3,0.5,0.5,0.8,0.8c0.1,0.1,0.2,0.2,0.3,0.3c0.3,0.3,0.7,0.7,1,1
			c0,0,0,0,0,0c0.1,0.1,0.1,0.1,0.2,0.2c0.3,0.3,0.6,0.6,1,0.8c0.1,0.1,0.3,0.2,0.4,0.3c0.3,0.2,0.5,0.4,0.8,0.6
			c0.1,0.1,0.3,0.2,0.4,0.3c0.3,0.2,0.6,0.4,0.9,0.7c0.1,0.1,0.2,0.2,0.3,0.2c0,0,0.1,0,0.1,0.1c0.3,0.2,0.6,0.4,0.9,0.6
			c0.1,0.1,0.3,0.2,0.4,0.3c0.4,0.3,0.9,0.6,1.4,0.9c0.1,0.1,0.2,0.1,0.4,0.2c0.3,0.2,0.7,0.4,1,0.6c0.2,0.1,0.4,0.2,0.6,0.3
			c0.3,0.1,0.5,0.3,0.7,0.4c0.1,0,0.1,0.1,0.2,0.1c0.1,0.1,0.2,0.1,0.3,0.1c0.4,0.2,0.8,0.4,1.1,0.6c0.1,0,0.2,0.1,0.3,0.1
			c0.4,0.2,0.9,0.4,1.3,0.6c0.1,0.1,0.2,0.1,0.3,0.1c0.4,0.2,0.9,0.3,1.3,0.5c0.1,0,0.1,0,0.2,0.1c0.5,0.2,0.9,0.3,1.4,0.5
			c0.1,0,0.2,0.1,0.3,0.1c0.5,0.2,0.9,0.3,1.4,0.4c31.7,6.2,41.2-18.6,41.2-18.6c-7.9,10-21.6,12.5-34.6,9.4c-0.5-0.1-1-0.3-1.4-0.4
			c-0.1,0-0.2-0.1-0.4-0.1c-0.5-0.2-0.9-0.3-1.4-0.5c-0.1,0-0.1,0-0.2-0.1c-0.4-0.2-0.8-0.3-1.2-0.5c-0.1-0.1-0.2-0.1-0.3-0.1
			c-0.4-0.2-0.9-0.4-1.3-0.6c-0.1,0-0.2-0.1-0.3-0.1c-0.4-0.2-0.8-0.3-1.1-0.5c-0.1-0.1-0.2-0.1-0.3-0.2c-0.3-0.2-0.6-0.3-0.9-0.5
			c-0.2-0.1-0.4-0.2-0.6-0.3c-0.4-0.2-0.7-0.4-1-0.6c-0.1-0.1-0.2-0.1-0.3-0.2c-0.5-0.3-0.9-0.6-1.4-0.8c-0.1-0.1-0.2-0.2-0.4-0.3
			c-0.3-0.2-0.6-0.4-1-0.7c-0.1-0.1-0.2-0.2-0.3-0.2c-0.3-0.2-0.6-0.4-0.9-0.7c-0.1-0.1-0.3-0.2-0.4-0.3c-0.3-0.2-0.6-0.4-0.8-0.7
			c-0.1-0.1-0.3-0.2-0.4-0.3c-0.3-0.3-0.7-0.6-1-0.9c0,0-0.1-0.1-0.1-0.1c-0.4-0.3-0.7-0.7-1.1-1c-0.1-0.1-0.2-0.2-0.3-0.3
			c-0.3-0.3-0.5-0.5-0.8-0.8c-0.1-0.1-0.2-0.2-0.3-0.3c-0.3-0.3-0.6-0.7-0.9-1c0,0,0,0,0-0.1c-0.3-0.4-0.6-0.7-0.9-1.1
			c-0.1-0.1-0.2-0.2-0.3-0.3c-0.2-0.3-0.4-0.6-0.7-0.9c-0.1-0.1-0.2-0.2-0.3-0.3c-0.3-0.4-0.5-0.7-0.8-1.1
			c-7.1-9.9-9.6-23.6-3.7-34.7"/>
		<path style="fill:#535353;" d="M165.4,8.7c-4.8,6.8-4.7,15.9-1.1,23.2c0.6,1.2,1.3,2.4,2.1,3.5c0.7,1,1.5,2.3,2.4,3.1
			c0.3,0.4,0.7,0.8,1,1.1c0.1,0.1,0.2,0.2,0.3,0.3c0.4,0.3,0.7,0.7,1.1,1c0,0,0,0,0,0c0,0,0,0,0,0c0.4,0.4,0.8,0.7,1.3,1.1
			c0.1,0.1,0.2,0.2,0.3,0.2c0.4,0.3,0.9,0.7,1.3,1c0,0,0,0,0,0c0.2,0.1,0.4,0.3,0.6,0.4c0.1,0.1,0.2,0.1,0.3,0.2
			c0.3,0.2,0.6,0.4,1,0.6c0.1,0,0.1,0.1,0.1,0.1c0.3,0.2,0.6,0.3,0.9,0.5c0.1,0.1,0.2,0.1,0.3,0.2c0.2,0.1,0.4,0.2,0.6,0.3
			c0,0,0.1,0,0.1,0c0.4,0.2,0.8,0.4,1.3,0.6c0.1,0,0.2,0.1,0.3,0.1c0.3,0.2,0.7,0.3,1,0.4c0.1,0.1,0.3,0.1,0.4,0.2
			c0.3,0.1,0.6,0.2,1,0.3c0.1,0.1,0.3,0.1,0.4,0.1c0.4,0.2,0.9,0.3,1.4,0.4c24.5,4.3,30.3-14.5,30.3-14.5
			C209,40.6,199,44,188.5,41.2c-0.5-0.1-0.9-0.3-1.4-0.4c-0.1,0-0.3-0.1-0.4-0.1c-0.3-0.1-0.6-0.2-1-0.3c-0.1-0.1-0.3-0.1-0.4-0.2
			c-0.4-0.1-0.7-0.3-1-0.4c-0.1,0-0.2-0.1-0.3-0.1c-0.4-0.2-0.9-0.4-1.3-0.6c-0.2-0.1-0.4-0.2-0.6-0.3c-0.1-0.1-0.2-0.1-0.4-0.2
			c-0.3-0.2-0.5-0.3-0.8-0.5c-0.1,0-0.1-0.1-0.2-0.1c-0.3-0.2-0.7-0.4-1-0.6c-0.1-0.1-0.2-0.1-0.3-0.2c-0.2-0.1-0.4-0.3-0.6-0.4
			c-0.4-0.3-0.9-0.7-1.3-1c-0.1-0.1-0.2-0.2-0.3-0.2c-4.6-3.7-8.2-8.7-9.9-14.4c-1.8-5.9-1.3-12.4,1.9-17.7"/>
		<path style="fill:#535353;" d="M182.2,2.9c-2.8,4.1-3.1,9.2-1.1,13.8c2.1,4.8,6.2,8.6,11.1,10.4c0.2,0.1,0.4,0.1,0.6,0.2
			c0.1,0,0.2,0.1,0.3,0.1c0.3,0.1,0.6,0.2,0.9,0.3c13.5,2.6,17.2-7,18.2-8.4c-3.2,4.6-8.6,5.7-15.3,4.1c-0.5-0.1-1.1-0.3-1.6-0.5
			c-0.6-0.2-1.3-0.5-1.9-0.8c-1.2-0.6-2.3-1.3-3.3-2c-5.9-4.5-9.6-13.1-5.8-20.1"/>
	</g>
</g>
</svg>
