<?xml version="1.0" encoding="utf-8"?>
<!-- Generator: Adobe Illustrator 20.1.0, SVG Export Plug-In . SVG Version: 6.00 Build 0)  -->
<svg version="1.1" id="Слой_1" xmlns="http://www.w3.org/2000/svg" xmlns:xlink="http://www.w3.org/1999/xlink" x="0px" y="0px"
	 viewBox="0 0 2000 2000" style="enable-background:new 0 0 2000 2000;" xml:space="preserve">
<g>
	<g id="XMLID_1_">
		<g>
			<path style="fill:#464646;" d="M2000.2,1045l0.3,0c-0.3,36.7-3,73.1-8.7,109.4c-9.6,61.1-24.4,120.8-45,179.1
				c-11.2,31.7-24.1,62.8-38.4,93.3c-23.2,49.4-50.5,96.5-81.4,141.5c-19,27.8-39.6,54.3-61.3,80.1c-20.5,24.3-42.3,47.5-65,69.8
				c-27.3,26.8-56.3,51.9-86.6,75.4c-33.4,26-68.4,49.7-104.9,71.3c-33.6,19.8-68.1,37.8-103.9,53.5c-29.8,13-60,24.9-90.9,35.1
				c-54.2,17.9-109.6,30.9-166.1,39.3c-29.5,4.4-59.2,7.3-89.1,7.5c-5.8,0-11.5,0.3-17.3,0.4c0-0.1,0-0.2,0-0.3c-2.7,0-5.3,0-8,0
				c-3,0-6,0-9,0c-3.4-0.1-6.8-0.8-10.1,0.8c-9.3,0-18.7,0-28,0c-3.9-1.7-8-0.9-12.1-0.8c-3,0-6,0-9,0c-2.3,0-4.6,0-7,0
				c0,0.1,0,0.2,0,0.3c-47,0.1-93.6-5-139.8-13.6c-49.2-9.2-97.5-21.8-144.9-38.1c-29.6-10.2-58.6-22.1-87.2-34.9
				c-34.9-15.6-68.5-33.6-101.2-53.2c-39.7-23.9-77.7-50.3-113.7-79.6c-19.8-16.1-38.9-32.9-57.5-50.3c-12.7-11.8-25-24-37-36.5
				c-15.8-16.5-30.9-33.5-45.6-51c-26.8-31.9-51.4-65.5-74.1-100.5c-16.6-25.6-31.7-52-45.9-79c-16.6-31.4-31.2-63.7-44.2-96.7
				c-25.6-64.5-43.9-131.1-55.4-199.5c-4-23.8-7.2-47.7-9.3-71.8c-0.8-9.1-0.9-18.3-1.1-27.5c-0.2-8.8-0.9-17.5-0.6-26.3l0.4,0
				c0-2.7,0-5.3,0-8c0-2.3,0-4.7,0-7c0-4,0.8-8.2-0.9-12.1c0-9.3,0-18.7,0-28c1.7-4.6,1-9.4,0.9-14.1c0-3,0-6,0-8.9c0-1.7,0-3.3,0-5
				c-0.1,0-0.2,0-0.3,0c-0.1-47.1,5-93.6,13.6-139.9c9.2-49.4,21.8-97.9,38.3-145.3c10.2-29.4,22-58.3,34.8-86.7
				c16.4-36.4,35.2-71.4,55.8-105.5c24.2-39.9,51.1-78,80.8-114.1c14.9-18.1,30.4-35.7,46.5-52.9c11.6-12.4,23.5-24.6,35.8-36.3
				c16.7-16,34-31.4,51.7-46.3c30.9-26,63.3-49.9,97.2-71.9c26.7-17.4,54.2-33.4,82.4-48.2c50-26.3,101.8-48,155.5-65.3
				C745.9,29.9,799,17.4,853.2,9.5c17.5-2.6,35-4.8,52.5-6.3c8.8-0.7,17.7-0.9,26.5-1.1c9.2-0.2,18.4-0.9,27.7-0.6
				c0,0.1,0,0.3-0.1,0.4c3.7,0,7.3,0,11,0C975.3,2,979.7,2.7,984,1c10.3,0,20.7,0,31,0c5,1.7,10.1,1,15.2,0.8c4,0,7.9,0,11.9,0
				c0-0.1,0-0.2-0.1-0.4c47.3-0.2,94.1,4.9,140.6,13.5c49.1,9.1,97.2,21.6,144.4,37.9c34,11.8,67.3,25.4,99.9,40.7
				c45.8,21.4,89.6,46.5,131.6,74.6c31.2,20.8,61,43.5,89.6,67.8c24.1,20.5,47.3,42,69.4,64.6c27.3,27.9,52.8,57.3,76.7,88.1
				c27.2,35,51.9,71.8,74.2,110.1c16.8,28.8,32,58.4,45.8,88.8c16.5,36.3,30.8,73.4,42.9,111.4c15.3,48.2,26.8,97.3,34.5,147.3
				c2.9,18.9,5.4,37.9,7.1,57c0.8,9.5,1,19,1.3,28.5c0.3,8.7,0.9,17.5,0.7,26.2c-0.1,0-0.2,0-0.4,0c0,3,0,6,0,9
				c-0.3,4.1-0.6,8.2,0.8,12.1c0,12.7,0,25.3,0,38c-1.6,2.9-0.9,6-0.9,9.1c0,2.3,0,4.6,0,7c0,2.3,0,4.7,0,7
				C2000.2,1041.7,2000.2,1043.4,2000.2,1045z M1955.1,1001.4c0.2-525.6-426.8-952.7-950.4-954.5c-528-1.9-958,427.4-957.7,954.2
				c0,524.8,425.9,951,948.4,954C1524.2,1958.2,1954.9,1528.6,1955.1,1001.4z"/>
			<path style="fill:#D3E3EB;" d="M2000.5,1044.6c0-1.3,0-2.7,0-4c0.2,0.1,0.4,0,0.5-0.5c0,1.7,0,3.3,0,5l-0.4,0.1h-0.1
				C2000.5,1044.9,2000.5,1044.7,2000.5,1044.6z"/>
			<path style="fill:#BED7E1;" d="M1042,2001c-2.7,0-5.3,0-8,0c0.5-0.1,0.7-0.3,0.5-0.5c2.3,0,4.6,0,6.9,0c0.2,0,0.4,0,0.6,0
				C1042,2000.7,1042,2000.8,1042,2001z"/>
			<path style="fill:#464646;" d="M2000.2,1045c0-1.7,0-3.3,0-5c0.1,0.3,0.2,0.4,0.3,0.5c0,1.3,0,2.7,0,4c0,0.2,0,0.3,0,0.5
				L2000.2,1045z"/>
			<path style="fill:#464646;" d="M1042,2000.5c-0.2,0-0.4,0-0.6,0c-2.3,0-4.6,0-6.9,0c-0.1-0.1-0.2-0.2-0.5-0.3c2.7,0,5.3,0,8,0
				C1042.1,2000.3,1042.1,2000.4,1042,2000.5z"/>
			<path style="fill:#BCD5E0;" d="M1.5,1041.4c0,0.2,0,0.4,0,0.7l-0.1,0L1,1042c0-2.7,0-5.3,0-8l0.4,0.1h0.1
				C1.5,1036.5,1.5,1039,1.5,1041.4z"/>
			<path style="fill:#464646;" d="M959,2000.2c2.3,0,4.6,0,7,0c-0.3,0.1-0.4,0.3-0.5,0.4c-1.9,0-3.9,0-5.8,0c-0.2,0-0.4,0-0.7,0
				C959,2000.4,959,2000.3,959,2000.2z"/>
			<path style="fill:#464646;" d="M1.5,1041.4c0-2.5,0-4.9,0-7.3l0.3,0c0,2.7,0,5.3,0,8l-0.4,0C1.5,1041.9,1.5,1041.7,1.5,1041.4z"
				/>
			<path style="fill:#C7DCE5;" d="M959,2001c0-0.2,0-0.3,0-0.5c0.2,0,0.4,0,0.7,0c1.9,0,3.9,0,5.8,0c-0.1,0.2,0.1,0.4,0.5,0.5
				C963.7,2001,961.3,2001,959,2001z"/>
			<path style="fill:#D9E7ED;" d="M1.5,959.5c0,1.3,0,2.7,0,4c-0.2-0.2-0.4,0-0.5,0.5c0-1.7,0-3.3,0-5c0.2,0,0.3-0.1,0.5-0.1
				C1.5,959.1,1.5,959.3,1.5,959.5z"/>
			<path style="fill:#464646;" d="M959.9,1.9c0-0.1,0-0.3,0.1-0.4c0.3,0,0.5,0,0.8,0c3.3,0,6.5,0,9.7,0c0.1,0.1,0.2,0.2,0.4,0.4
				C967.2,1.9,963.6,1.9,959.9,1.9z"/>
			<path style="fill:#464646;" d="M1030.2,1.8c0.1,0,0.2-0.1,0.3-0.3c3.5,0,7.1,0,10.6,0c0.3,0,0.6,0,1,0c0,0.1,0,0.2,0.1,0.4
				C1038.1,1.9,1034.1,1.8,1030.2,1.8z"/>
			<path style="fill:#AACAD8;" d="M960.8,1.5c-0.3,0-0.5,0-0.8,0c0-0.2,0-0.3,0-0.5c3.7,0,7.3,0,11,0c-0.5,0.1-0.6,0.3-0.5,0.5
				C967.2,1.5,964,1.5,960.8,1.5z"/>
			<path style="fill:#464646;" d="M1.8,959c0,1.7,0,3.3,0,5c-0.1-0.3-0.2-0.4-0.3-0.5c0-1.3,0-2.7,0-4c0-0.2,0-0.4,0-0.5
				C1.6,958.9,1.7,958.9,1.8,959z"/>
			<path style="fill:#A9C9D8;" d="M1030.5,1.5c0.1-0.2-0.1-0.4-0.5-0.5c4,0,8,0,12,0c0,0.2,0,0.3,0,0.5c-0.3,0-0.6,0-1,0
				C1037.5,1.5,1034,1.5,1030.5,1.5C1030.5,1.5,1030.5,1.5,1030.5,1.5z"/>
			<path style="fill:#B9D3DF;" d="M2001,958c0,3,0,6,0,9c-0.1-0.4-0.3-0.6-0.5-0.5c0-2.6,0-5.3,0-7.9c0-0.3,0-0.5,0-0.7
				C2000.7,957.9,2000.8,957.9,2001,958z"/>
			<path style="fill:#464646;" d="M2000.5,957.9c0,0.2,0,0.5,0,0.7c0,2.6,0,5.3,0,7.9c-0.1,0-0.2,0.2-0.3,0.3c0-3,0-6,0-9
				C2000.3,957.9,2000.4,957.9,2000.5,957.9z"/>
			<path style="fill:#464646;" d="M1.5,972.5c0.1,0,0.2,0.2,0.4,0.4c-0.1,0-0.2,0-0.4,0C1.5,972.8,1.5,972.6,1.5,972.5z"/>
			<path style="fill:#464646;" d="M1.8,963.9c0,3,0,6,0,8.9c-0.1-0.2-0.3-0.3-0.4-0.4c0-2.7,0-5.4,0-8c0-0.2,0-0.3,0-0.5L1.8,963.9z
				"/>
			<path style="fill:#9CC1D2;" d="M2001,1033c0,2.3,0,4.7,0,7c-0.2,0.1-0.3,0.1-0.5,0.1c0-0.1,0-0.3,0-0.4c0-2,0-4.1,0-6.1
				C2000.7,1033.7,2000.9,1033.5,2001,1033z"/>
			<path style="fill:#6BA2BB;" d="M2001,1026c0,2.3,0,4.7,0,7c-0.2,0-0.3,0.1-0.5,0.1c0,0,0-0.1,0-0.2c0-2.1,0-4.3,0-6.4
				C2000.7,1026.7,2000.9,1026.5,2001,1026z"/>
			<path style="fill:#3E87A8;" d="M2001,1017c0,3,0,6,0,9c-0.2,0-0.3,0.1-0.5,0.1C2000.8,1023.1,1999.9,1020,2001,1017z"/>
			<path style="fill:#72A7BF;" d="M2001,967c0,4,0,8,0,12c-1.1-4-0.2-8-0.5-12c0,0,0-0.1,0-0.1h0.1L2001,967z"/>
			<path style="fill:#B9D3DF;" d="M2001,967l-0.4-0.1h-0.1c0-0.1,0-0.2,0-0.3C2000.7,966.4,2000.9,966.6,2001,967z"/>
			<path style="fill:#9CC1D2;" d="M2001,1033c-0.1,0.5-0.3,0.7-0.5,0.5c0-0.2,0-0.3,0-0.5C2000.7,1033.1,2000.8,1033,2001,1033z"/>
			<path style="fill:#D3E3EB;" d="M2001,1040c-0.1,0.5-0.3,0.7-0.5,0.5c0-0.2,0-0.3,0-0.5C2000.7,1040.1,2000.8,1040.1,2001,1040z"
				/>
			<path style="fill:#6BA2BB;" d="M2001,1026c-0.1,0.5-0.3,0.7-0.5,0.5c0-0.1,0-0.3,0-0.4c0,0,0,0,0,0
				C2000.7,1026.1,2000.8,1026,2001,1026z"/>
			<path style="fill:#464646;" d="M2000.5,967c0.3,4-0.6,8,0.5,12c-1.4-4-1.1-8-0.8-12.1l0.3,0C2000.5,966.9,2000.5,967,2000.5,967z
				"/>
			<path style="fill:#464646;" d="M2001,1017c-1.1,3-0.2,6.1-0.5,9.1c-0.1,0-0.3,0-0.4,0C2000.1,1023,1999.4,1019.9,2001,1017z"/>
			<path style="fill:#464646;" d="M2000.5,1026.1C2000.5,1026.1,2000.5,1026.1,2000.5,1026.1c0,0.2,0,0.3,0,0.5
				c-0.1-0.1-0.2-0.2-0.4-0.4C2000.3,1026.1,2000.4,1026.1,2000.5,1026.1z"/>
			<path style="fill:#464646;" d="M2000.5,1040.1c0,0.2,0,0.3,0,0.5c-0.1-0.1-0.2-0.2-0.3-0.5
				C2000.3,1040.1,2000.4,1040.1,2000.5,1040.1z"/>
			<path style="fill:#464646;" d="M2000.5,1039.7c0,0.1,0,0.3,0,0.4c-0.1,0-0.2,0-0.3,0c0-2.3,0-4.6,0-7c0.1,0.2,0.2,0.4,0.3,0.5
				C2000.5,1035.6,2000.5,1037.6,2000.5,1039.7z"/>
			<path style="fill:#464646;" d="M2000.5,1033.1c0,0.2,0,0.3,0,0.5c-0.1-0.1-0.2-0.2-0.3-0.5
				C2000.3,1033.1,2000.4,1033.1,2000.5,1033.1z"/>
			<path style="fill:#464646;" d="M2000.5,1032.9c0,0,0,0.1,0,0.2c-0.1,0-0.2,0-0.3,0c0-2.3,0-4.6,0-7c0.1,0.2,0.3,0.4,0.4,0.4
				C2000.5,1028.7,2000.5,1030.8,2000.5,1032.9z"/>
			<path style="fill:#464646;" d="M2000.5,966.5c0,0.1,0,0.2,0,0.3l-0.3,0C2000.3,966.7,2000.4,966.6,2000.5,966.5z"/>
			<path style="fill:#FFFFFF;" d="M1004.7,46.9c523.7,1.9,950.6,428.9,950.4,954.5c-0.2,527.2-430.9,956.8-959.8,953.7
				c-522.5-3.1-948.4-429.2-948.4-954C46.6,474.3,476.6,45,1004.7,46.9z M1754,590.9c6.1,48.2,7,95.4,3.2,142.8
				c-4.6,56.7-16.3,111.9-32.8,166.2c-9.2,30.3-21.1,59.6-31.4,89.4c-86.4,249-172.5,498.1-258.6,747.3c-0.5,1.5-1.9,3.1-0.9,5
				C1862.7,1489.5,1962.2,960.6,1754,590.9z M1570.6,1040.2c9-42.4,12-85,7.2-128.2c-5.7-51.6-21.4-100-44.3-146.4
				c-16.2-32.8-36-63.4-54.8-94.6c-17-28.3-32.9-57.1-43.1-88.7c-13.5-41.7-15.4-83.4,2.4-124.4c19.3-44.3,51.5-74.2,98.9-86.5
				c13.6-3.5,27.6-4.3,41.8-4c-135.1-122-292.6-196.2-473.4-217.8c-196.5-23.5-380.3,16-549.9,118.5
				c-109.8,66.4-199.6,154-271,261.5c1.6,0.2,2.2,0.3,2.9,0.3c76.9,2.8,153.6-1.7,230.3-6.4c18-1.1,35.9-3,53.9-3.4
				c20.8-0.5,36.3,17.3,34.1,38.1c-2,19.2-14.5,30.7-34.8,32.8c-29.5,3-59,5.7-88.6,7.3c-6.6,0.4-6.6,0.5-4.6,6.6
				c97.9,291.2,195.8,582.4,293.7,873.5c5.4,16,10.8,32,16.2,48.1c1.9-1.2,1.9-3.1,2.4-4.6c61.3-183.8,122.6-367.7,184-551.5
				c1.2-3.6,1.4-6.9,0-10.6C930.7,842,887.6,724.1,844.7,606c-2.1-5.8-5-7.7-10.9-8c-27.8-1.4-55.4-4.8-83.1-7.5
				c-26.7-2.6-36.1-28.4-28.1-48.8c6.2-15.8,19-23.1,39.1-21.5c47.4,3.6,94.8,6.1,142.2,8.6c86.1,4.5,171.9,0.2,257.7-5.4
				c17.5-1.1,34.9-2.5,52.4-3.4c9.9-0.5,18.8,2.6,25.7,10.1c10.3,11.3,12.4,24.5,7.2,38.6c-5.5,14.9-17.6,20.8-32.6,22.3
				c-29.5,3-59,5.8-88.6,7.4c-6.4,0.3-6.4,0.5-4.4,6.4c26.2,77.9,52.4,155.7,78.6,233.6c75.8,225.4,151.5,450.9,227.3,676.3
				c0.5,1.6,0.4,3.7,2.5,4.6c0.5-1.5,0.9-2.9,1.4-4.3c31-103.2,61.9-206.5,93.1-309.6C1540.7,1150.6,1558.6,1096.2,1570.6,1040.2z
				 M1281.1,1812c3.7-1.3,4.8-2.4,2.4-6.1c-2-3-3.4-6.5-4.6-9.9c-77.3-211.7-154.6-423.3-231.9-635c-10.1-27.8-20.3-55.6-30.9-84.7
				c-1.1,2.9-1.7,4.4-2.2,5.9c-49.8,144.7-99.6,289.4-149.3,434c-34.8,101-69.5,201.9-104.3,302.9c-0.9,2.7-2.3,4.7,2.3,6
				c63.6,18.3,128.5,29.2,194.6,32.6c66.3,3.4,132.2-0.9,197.5-12.8C1197.7,1837.2,1239.8,1826.1,1281.1,1812z M217.7,652.5
				c-186,407.2-15.4,918.2,408.7,1119.8C490,1398.8,353.9,1025.8,217.7,652.5z"/>
			<path style="fill:#464646;" d="M1757.2,733.7c3.8-47.3,2.9-94.5-3.2-142.8c208.2,369.6,108.7,898.6-320.6,1150.6
				c-1-1.9,0.4-3.5,0.9-5c86.1-249.1,172.2-498.2,258.6-747.3c10.3-29.8,22.3-59.1,31.4-89.4
				C1740.9,845.6,1752.6,790.4,1757.2,733.7z"/>
			<path style="fill:#464646;" d="M1577.8,912c4.8,43.1,1.8,85.8-7.2,128.2c-11.9,56.1-29.8,110.4-46.4,165.2
				c-31.2,103.2-62.1,206.4-93.1,309.6c-0.4,1.4-0.9,2.8-1.4,4.3c-2.1-0.9-1.9-3.1-2.5-4.6c-75.8-225.4-151.6-450.9-227.3-676.3
				c-26.2-77.9-52.4-155.7-78.6-233.6c-2-5.9-2-6.1,4.4-6.4c29.6-1.6,59.1-4.3,88.6-7.4c15-1.5,27.1-7.5,32.6-22.3
				c5.2-14,3.1-27.3-7.2-38.6c-6.8-7.5-15.7-10.6-25.7-10.1c-17.5,0.9-34.9,2.3-52.4,3.4c-85.8,5.6-171.7,9.9-257.7,5.4
				c-47.4-2.5-94.8-5-142.2-8.6c-20.1-1.5-32.9,5.7-39.1,21.5c-8,20.4,1.4,46.2,28.1,48.8c27.7,2.7,55.3,6.1,83.1,7.5
				c5.9,0.3,8.8,2.2,10.9,8c42.9,118,86,236,129.1,353.9c1.3,3.7,1.2,6.9,0,10.6c-61.4,183.8-122.6,367.7-184,551.5
				c-0.5,1.5-0.5,3.4-2.4,4.6c-5.5-16.1-10.9-32.1-16.2-48.1C673.3,1187.3,575.4,896.1,477.5,605c-2-6.1-2-6.2,4.6-6.6
				c29.6-1.6,59.1-4.4,88.6-7.3c20.2-2,32.8-13.6,34.8-32.8c2.2-20.8-13.3-38.6-34.1-38.1c-18,0.4-35.9,2.3-53.9,3.4
				c-76.7,4.8-153.4,9.2-230.3,6.4c-0.6,0-1.2-0.1-2.9-0.3c71.4-107.4,161.2-195.1,271-261.5C725,165.6,908.8,126.2,1105.3,149.7
				c180.8,21.6,338.3,95.8,473.4,217.8c-14.3-0.3-28.2,0.5-41.8,4c-47.4,12.3-79.6,42.2-98.9,86.5c-17.8,41-15.9,82.7-2.4,124.4
				c10.2,31.6,26.1,60.4,43.1,88.7c18.8,31.2,38.6,61.8,54.8,94.6C1556.4,812,1572.1,860.5,1577.8,912z"/>
			<path style="fill:#464646;" d="M1283.6,1805.9c2.4,3.7,1.3,4.8-2.4,6.1c-41.3,14.1-83.4,25.2-126.4,33
				c-65.3,11.9-131.2,16.2-197.5,12.8c-66.1-3.4-131-14.3-194.6-32.6c-4.6-1.3-3.2-3.3-2.3-6c34.8-100.9,69.5-201.9,104.3-302.9
				c49.8-144.7,99.6-289.4,149.3-434c0.5-1.5,1.1-3,2.2-5.9c10.6,29.1,20.7,56.9,30.9,84.7c77.3,211.7,154.6,423.4,231.9,635
				C1280.2,1799.4,1281.6,1802.9,1283.6,1805.9z"/>
			<path style="fill:#BED7E1;" d="M1034.5,2000.5c0.1,0.2-0.1,0.4-0.5,0.5c0-0.2,0-0.3,0.1-0.5
				C1034.2,2000.5,1034.4,2000.5,1034.5,2000.5z"/>
			<path style="fill:#464646;" d="M1034.5,2000.5c-0.2,0-0.3,0-0.5,0c0-0.1,0-0.2,0-0.3C1034.3,2000.3,1034.5,2000.4,1034.5,2000.5z
				"/>
			<path style="fill:#464646;" d="M1034.1,2000.2c0,0.1,0,0.2,0,0.3c-0.1,0-0.1,0-0.2,0c-2.8,0-5.6,0-8.4,0
				c-0.1-0.1-0.2-0.2-0.3-0.3C1028.1,2000.2,1031.1,2000.2,1034.1,2000.2z"/>
			<path style="fill:#7EAEC4;" d="M1034.1,2000.5c0,0.2,0,0.3-0.1,0.5c-3,0-6,0-9,0c0.2,0,0.3-0.1,0.4-0.2c0.1-0.1,0.1-0.2,0-0.3
				c2.8,0,5.6,0,8.4,0C1033.9,2000.5,1034,2000.5,1034.1,2000.5z"/>
			<path style="fill:#A9C9D8;" d="M1030,1c0.4,0.1,0.6,0.3,0.5,0.5c0,0,0,0,0,0c-0.1,0-0.3,0-0.4,0C1030.1,1.3,1030,1.2,1030,1z"/>
			<path style="fill:#464646;" d="M1030.1,1.5c0.1,0,0.3,0,0.4,0c-0.1,0.2-0.2,0.3-0.3,0.3C1030.1,1.7,1030.1,1.6,1030.1,1.5z"/>
			<path style="fill:#464646;" d="M1030.1,1.5c0,0.1,0,0.2,0.1,0.3C1025.1,2,1020,2.7,1015,1c4.9,1.1,9.9,0.2,14.9,0.5
				C1030,1.5,1030,1.5,1030.1,1.5z"/>
			<path style="fill:#5897B3;" d="M1030,1c0,0.2,0.1,0.3,0.1,0.5c-0.1,0-0.1,0-0.2,0c-5-0.3-10,0.6-14.9-0.5C1020,1,1025,1,1030,1z"
				/>
			<path style="fill:#7EAEC4;" d="M1025.5,2000.5c0.1,0.1,0.1,0.2,0,0.3c-0.1,0.1-0.3,0.2-0.4,0.2c0-0.2,0.1-0.3,0.1-0.5
				c0.1,0,0.1,0,0.2,0C1025.3,2000.5,1025.4,2000.5,1025.5,2000.5z"/>
			<path style="fill:#464646;" d="M1025.5,2000.5c-0.1,0-0.2,0-0.2,0c-0.1,0-0.1,0-0.2,0c0-0.1,0-0.2,0.1-0.3
				C1025.3,2000.3,1025.4,2000.4,1025.5,2000.5z"/>
			<path style="fill:#464646;" d="M1025.1,2000.2c0,0.1,0,0.2-0.1,0.3c-3.3,0.2-6.8-0.6-10.1,0.5
				C1018.3,1999.4,1021.7,2000.1,1025.1,2000.2z"/>
			<path style="fill:#5494B1;" d="M1025.1,2000.5c0,0.2,0,0.3-0.1,0.5c-3.3,0-6.7,0-10,0C1018.3,1999.9,1021.7,2000.8,1025.1,2000.5
				z"/>
			<path style="fill:#5495B2;" d="M987,2001c-4,0-8,0-12,0c0-0.2,0-0.3-0.1-0.5c0,0,0,0,0,0C979,2000.8,983,1999.9,987,2001z"/>
			<path style="fill:#609CB7;" d="M971,1c4.3,0,8.7,0,13,0c-4.3,1.1-8.7,0.2-13,0.5c0,0,0,0,0,0C971,1.3,971,1.2,971,1z"/>
			<path style="fill:#464646;" d="M987,2001c-4-1.1-8-0.2-12-0.5c0,0,0,0,0,0c0-0.1,0-0.2,0-0.3C979,2000.1,983.1,1999.3,987,2001z"
				/>
			<path style="fill:#464646;" d="M971,1.5c4.3-0.3,8.7,0.6,13-0.5c-4.3,1.7-8.7,1-13.1,0.9C970.9,1.7,970.9,1.6,971,1.5
				C971,1.5,971,1.5,971,1.5z"/>
			<path style="fill:#85B3C8;" d="M974.9,2000.5c0,0.2,0,0.3,0.1,0.5c-0.5-0.1-0.7-0.3-0.5-0.5
				C974.6,2000.5,974.8,2000.5,974.9,2000.5z"/>
			<path style="fill:#85B3C8;" d="M975,2001c-3,0-6,0-9,0c0-0.2,0-0.3,0-0.5c0.1,0,0.2,0,0.3,0c2.7,0,5.5,0,8.2,0
				C974.3,2000.7,974.5,2000.9,975,2001z"/>
			<path style="fill:#464646;" d="M974.9,2000.2c0,0.1,0,0.2,0,0.3c-0.1,0-0.3,0-0.5,0C974.5,2000.4,974.7,2000.3,974.9,2000.2z"/>
			<path style="fill:#464646;" d="M965.9,2000.1c3,0,6,0,9,0c-0.2,0.1-0.3,0.2-0.4,0.3c-2.7,0-5.4,0-8.2,0c-0.1,0-0.2,0-0.3,0
				C966,2000.4,966,2000.3,965.9,2000.1z"/>
			<path style="fill:#AACAD8;" d="M971,1c0,0.2,0,0.3-0.1,0.5c-0.2,0-0.3,0-0.5,0C970.4,1.3,970.5,1.1,971,1z"/>
			<path style="fill:#464646;" d="M970.9,1.5c0,0.1,0,0.2-0.1,0.4c-0.2-0.1-0.3-0.2-0.4-0.4C970.6,1.5,970.8,1.5,970.9,1.5z"/>
			<path style="fill:#C7DCE5;" d="M966,2000.5c0,0.2,0,0.3,0,0.5c-0.5-0.1-0.7-0.3-0.5-0.5C965.6,2000.5,965.8,2000.5,966,2000.5z"
				/>
			<path style="fill:#464646;" d="M965.9,2000.1c0,0.1,0,0.2,0,0.4c-0.2,0-0.3,0-0.5,0C965.5,2000.4,965.7,2000.3,965.9,2000.1z"/>
			<path style="fill:#464646;" d="M626.4,1772.3C202.3,1570.7,31.6,1059.6,217.7,652.5C353.9,1025.8,490,1398.8,626.4,1772.3z"/>
			<path style="fill:#464646;" d="M1.9,972.9C2,977.6,2.7,982.4,1,987c1.1-4.6,0.2-9.3,0.5-13.9c0-0.1,0-0.1,0-0.2
				C1.6,972.9,1.7,972.9,1.9,972.9z"/>
			<path style="fill:#464646;" d="M1,1015c1.7,3.9,0.9,8,0.9,12.1c-0.1,0-0.3,0-0.4,0C1.2,1023,2.1,1019,1,1015z"/>
			<path style="fill:#464646;" d="M1.9,1027.1c0,2.3,0,4.7,0,7c-0.1-0.3-0.2-0.5-0.3-0.6c0-2,0-4,0-6
				C1.6,1027.5,1.7,1027.3,1.9,1027.1z"/>
			<path style="fill:#464646;" d="M1.5,1027.1c0.1,0,0.3,0,0.4,0c-0.1,0.3-0.3,0.4-0.4,0.5C1.5,1027.4,1.5,1027.2,1.5,1027.1z"/>
			<path style="fill:#464646;" d="M1.8,963.9l-0.3,0c0-0.1,0-0.3,0-0.5C1.6,963.5,1.7,963.7,1.8,963.9z"/>
			<path style="fill:#464646;" d="M1.8,1034.1l-0.3,0c0,0,0-0.1,0-0.2c0-0.1,0-0.3,0-0.4C1.6,1033.5,1.7,1033.7,1.8,1034.1z"/>
			<path style="fill:#85B2C7;" d="M1.5,1033.9c0,0,0,0.1,0,0.2H1.4L1,1034c0.2-0.4,0.4-0.5,0.5-0.5
				C1.5,1033.7,1.5,1033.8,1.5,1033.9z"/>
			<path style="fill:#85B2C7;" d="M1.5,1027.6c0,2,0,4,0,6c-0.1-0.1-0.3,0.1-0.5,0.5c0-2.3,0-4.7,0-7
				C1.1,1027.5,1.3,1027.7,1.5,1027.6z"/>
			<path style="fill:#85B2C7;" d="M1.5,1027.1c0,0.2,0,0.3,0,0.5c-0.2,0.1-0.4-0.1-0.5-0.6C1.2,1027,1.3,1027,1.5,1027.1z"/>
			<path style="fill:#5998B4;" d="M1.5,972.9c0,0.1,0,0.1,0,0.2c-0.3,4.6,0.6,9.3-0.5,13.9c0-4.7,0-9.3,0-14
				C1.2,972.9,1.3,972.9,1.5,972.9z"/>
			<path style="fill:#9FC3D3;" d="M1.5,972.5c0,0.1,0,0.3,0,0.4c-0.2,0-0.3,0-0.5,0.1C1.1,972.5,1.3,972.4,1.5,972.5z"/>
			<path style="fill:#9FC3D3;" d="M1.5,964.4c0,2.7,0,5.4,0,8c-0.2-0.1-0.4,0-0.5,0.5c0-3,0-6,0-9l0.4-0.1h0.1
				C1.5,964.1,1.5,964.3,1.5,964.4z"/>
			<path style="fill:#D9E7ED;" d="M1.5,963.5c0,0.1,0,0.3,0,0.5H1.4L1,964C1.1,963.5,1.3,963.3,1.5,963.5z"/>
			<path style="fill:#5796B3;" d="M1.5,1027.1c-0.2,0-0.3,0-0.5-0.1c0-4,0-8,0-12C2.1,1019,1.2,1023,1.5,1027.1z"/>
		</g>
		<g>
		</g>
	</g>
</g>
</svg>
